<svg xmlns="http://www.w3.org/2000/svg" viewBox="0 0 7502.4 1155.1"><defs><path id="A" d="M6381.4 297h-198.8c-109.2 0-197.6 88.5-197.6 197.6v198.7c0 109.2 88.5 197.6 197.6 197.6h198.7c109.2 0 197.6-88.5 197.6-197.6V494.7c.1-109.2-88.4-197.7-197.5-197.7zm65.6 396.8c0 36-29.1 65.2-65.2 65.2h-199.6c-36 0-65.2-29.1-65.2-65.2V494.2c0-36 29.1-65.2 65.2-65.2h199.6c36 0 65.2 29.1 65.2 65.2v199.6zM5370.6 494.5v199.1c0 109.1 88.4 197.4 197.4 197.4h351.3V759h-351.7c-35.9 0-65.1-29.1-65.1-65.1V494.1c0-35.9 29.1-65.1 65.1-65.1h351.7V297H5568c-109 0-197.4 88.4-197.4 197.5zm-132.4 239.8h0c-36.5 0-66 29.5-66 66h0c0 36.5 29.5 66 66 66h0c36.5 0 66-29.5 66-66h0c0-36.5-29.6-66-66-66zM4907.6 297h-329.7c-36.2 0-65.6 29.3-65.6 65.6v528.3h132V462.2c0-18.3 14.8-33.3 33.2-33.3h231.1c36.3 0 65.7 29.4 65.7 65.7v396.3h132V495.7c-.1-109.8-89-198.7-198.7-198.7zm-658.6 0h-199.4c-109 0-197.3 88.4-197.3 197.3v199.4c0 109 88.4 197.3 197.3 197.3h198.7V759h-199.6c-35.6 0-64.4-28.9-64.4-64.4v-201c0-35.6 28.9-64.4 64.4-64.4h201.1c35.6 0 64.4 28.9 64.4 64.4v463c0 36.8-29.8 66.5-66.5 66.5h-263.4v132H4249c109 0 197.3-88.4 197.3-197.3V494.3c0-109-88.4-197.3-197.3-197.3zm-594.7 594h132V297h-132v594h0zm0-759h132V0h-132v132h0zm-262.7 363h-166.2c-18.2 0-33-14.8-33-33h0c0-18.2 14.8-33 33-33h297.3V297h-297.2c-91.1 0-165 73.9-165 165h0c0 91.1 73.9 165 165 165h164.9c36.5 0 66 29.5 66 66h0c0 36.5-29.5 66-66 66h-791.7c-36.5 0-66-29.5-66-66V495c0-36.5 29.5-66 66-66h197.9c36.5 0 66 29.5 66 66h0c0 36.5-29.5 66-66 66h-197.9v132h198.4c109 0 197.4-88.4 197.4-197.4v-1.2c0-109-88.4-197.4-197.4-197.4h-199.7c-108.6 0-196.6 88.1-196.6 196.6v200.6c0 108.6 88.1 196.6 196.6 196.6h794.3c108.6 0 196.6-88.1 196.6-196.6v-2.7c0-108.5-88.1-196.5-196.7-196.5zm4070.5 264V494.9c0-109.3-88.6-197.9-197.9-197.9h-198.1v43.4c-33.9-27.1-76.8-43.4-123.7-43.4H6709c-35.2 0-63.7 28.5-63.7 63.7V429v462h132V462.6c0-18.5 15-33.5 33.5-33.5h131.8c36.3 0 65.7 29.4 65.7 65.7v396.3h132V494.9c0-23.1-3.9-45.3-11.3-65.9h135.1c36.4 0 65.9 29.5 65.9 65.9v330.8c0 36.1 29.2 65.3 65.3 65.3h107.1V759h-40.3zm-5259.3-65.8c0 36.4-29.5 65.8-65.8 65.8h-198.2c-36.4 0-65.8-29.5-65.8-65.8V494.8c0-36.4 29.5-65.8 65.8-65.8h198V297h-198c-109.3 0-197.8 88.5-197.8 197.8v198.5c0 109.3 88.5 197.8 197.8 197.8h198.1c109.3 0 197.8-88.5 197.8-197.8V0h-131.9v693.2h0zm-594-165.2h-156.7c-36.5 0-66 29.5-66 66h0c0 36.5 29.5 66 66 66h156.7c36.5 0 66-29.5 66-66h0c-.1-36.5-29.7-66-66-66zM1188 891h132V297h-132v594zm.7-759h132V0h-132v132zM924 891h132V297H924v594zm0-759h132V0H924v132zM614.5 679.4l-106.7-321c-12.2-36.7-46.6-61.5-85.2-61.5h0c-39.9 0-74.9 26.3-86.2 64.5l-90.5 308.5-113.9-373H0l163.1 533.8c10.9 35.8 44 60.3 81.5 60.3h0c40.9 0 76.8-26.9 88.3-66.2l92.7-316.6L531.8 828c12.5 37.6 47.7 63 87.3 63h1.7c37.9 0 71.2-25 81.9-61.3L858.1 297h-132L614.5 679.4z"/></defs><clipPath id="B"><use href="#A"/></clipPath><g clip-path="url(#B)"><linearGradient id="C" gradientUnits="userSpaceOnUse" x1="-.525" y1="589.874" x2="7501.4" y2="589.874"><stop offset="0" stop-color="#d23431"/><stop offset=".143" stop-color="#eab51e"/><stop offset=".335" stop-color="#63a535"/><stop offset=".532" stop-color="#3ea6c3"/><stop offset=".667" stop-color="#24478a"/><stop offset=".823" stop-color="#713770"/><stop offset=".983" stop-color="#ce254d"/><stop offset="1" stop-color="#d23531"/></linearGradient><path d="M-.5-91.4h7501.9v1362.5H-.5V-91.4z" fill="url(#C)"/><linearGradient id="D" gradientUnits="userSpaceOnUse" x1="3750.85" y1="-88.07" x2="3750.85" y2="1268.53"><stop offset="0" stop-color="#fff"/><stop offset=".299" stop-color="#fff" stop-opacity=".2"/><stop offset=".5" stop-color="#fff" stop-opacity="0"/><stop offset=".505" stop-color="#f9f9f9" stop-opacity="0"/><stop offset=".553" stop-color="#c2c2c2" stop-opacity="0"/><stop offset=".598" stop-color="#969696" stop-opacity="0"/><stop offset=".638" stop-color="#777" stop-opacity="0"/><stop offset=".672" stop-color="#646464" stop-opacity="0"/><stop offset=".696" stop-color="#5d5d5d" stop-opacity="0"/><stop offset=".749" stop-color="#3f3f3f" stop-opacity=".053"/><stop offset=".811" stop-color="#232323" stop-opacity=".113"/><stop offset=".873" stop-color="#101010" stop-opacity=".175"/><stop offset=".936" stop-color="#040404" stop-opacity=".237"/><stop offset="1" stop-opacity=".3"/></linearGradient><path d="M-.5-88.1h7502.8v1356.6H-.5V-88.1z" opacity=".52" fill="url(#D)" enable-background="new"/></g></svg>