<svg xmlns="http://www.w3.org/2000/svg" viewBox="0 0 470 468.2"><defs><linearGradient id="A" x1="127" y1="127" x2="382" y2="382" href="#H"><stop offset="0" stop-color="#222"/><stop offset="1" stop-color="#606060"/></linearGradient><path id="B" opacity=".5" d="M235 470L0 235 235 0 470 235z"/><linearGradient id="C" x1="0" y1="470" x2="470" y2="0" href="#H"><stop offset="0" stop-color="#ffed00"/><stop offset="1" stop-color="#312783"/></linearGradient><linearGradient id="D" x1="0" y1="0" x2="470" y2="470" href="#H"><stop offset="0" stop-color="#e6007e"/><stop offset="1" stop-color="#009fe3"/></linearGradient><linearGradient id="E" x1="470" y1="0" x2="0" y2="470" href="#H"><stop offset="0" stop-color="#009640"/><stop offset="1" stop-color="#e30613"/></linearGradient><path id="F" d="M331.6 265.2L276.8 99.9c-6.3-19-24-31.7-43.8-31.7h0c-20.6 0-38.5 13.6-44.3 33.2L142 260.3 83.1 68.4H15.3l84 274.8c5.7 18.4 22.6 31 42 31h0c21 0 39.6-13.9 45.5-34L234.5 177l54.7 164.6c6.4 19.4 24.6 32.4 44.9 32.4h.8c19.5 0 36.6-12.9 42.2-31.6l80.1-274.2h-68.1l-57.5 197h0z"/><path id="G" d="M394.1 403.9v42.9h10.7v-34.9a2.65 2.65 0 0 1 2.6-2.6h18.7a5.27 5.27 0 0 1 5.3 5.3v32.2h10.7v-32.1c0-8.9-7.2-16.1-16.1-16.1h-26.8c-2.7 0-5.1 2.4-5.1 5.3zm-53.8 10.7v16.2c0 8.9 7.2 16 16 16h16.2v-10.7h-16.2a5.34 5.34 0 0 1-5.3-5.3v-16.3a5.34 5.34 0 0 1 5.3-5.3h16.3a5.34 5.34 0 0 1 5.3 5.3v37.6c0 3-2.4 5.4-5.4 5.4h-21.4v10.7h21.5c8.9 0 16-7.2 16-16v-37.6c0-8.9-7.2-16-16-16h-16.2c-8.8 0-16.1 7.2-16.1 16zm-16.1-16h10.7v48.3h-10.7zm0-24.2h10.7v10.7h-10.7zm-10.7 34.9v-10.7h-24.2c-7.5 0-13.5 6-13.5 13.5h0c0 7.5 6 13.5 13.5 13.5h13.5c3 0 5.4 2.4 5.4 5.4h0c0 3-2.4 5.4-5.4 5.4h-64.3c-3 0-5.4-2.4-5.4-5.4v-16.1c0-3 2.4-5.4 5.4-5.4h16.1c3 0 5.4 2.4 5.4 5.4h0c0 3-2.4 5.4-5.4 5.4h-16.1V431h16.1c8.9 0 16-7.2 16-16v-.1c0-8.9-7.2-16-16-16h-16.2c-8.8 0-16 7.2-16 16v16.3c0 8.8 7.2 16 16 16h64.5c8.8 0 16-7.2 16-16v-.2c0-8.8-7.2-16-16-16h-13.5a2.65 2.65 0 0 1-2.6-2.6h0a2.65 2.65 0 0 1 2.6-2.6h24v-.5h.1zm-107.2-34.9v56.4c0 3-2.4 5.4-5.4 5.4h-16.1c-3 0-5.4-2.4-5.4-5.4v-16.1c0-3 2.4-5.4 5.4-5.4h16.1v-10.7h-16.1c-8.9 0-16.1 7.2-16.1 16.1v16.1c0 8.9 7.2 16.1 16.1 16.1h16.1c8.9 0 16.1-7.2 16.1-16.1v-56.4h-10.7zM158 417.3h-12.7c-3 0-5.4 2.4-5.4 5.4h0c0 3 2.4 5.4 5.4 5.4H158c3 0 5.4-2.4 5.4-5.4h0c0-3-2.4-5.4-5.4-5.4zm-34.2-18.7h10.7v48.3h-10.7zm.1-24.2h10.7v10.7h-10.7zm-21.5 24.2h10.7v48.3h-10.7zm0-24.2h10.7v10.7h-10.7zm-25.1 55.2l-8.7-26.1c-1-3-3.7-5-7-5h0c-3.2 0-6.1 2.2-7 5.3l-7.3 25.1-9.3-30.3H27.4L40.6 442c.8 2.9 3.6 4.9 6.6 4.9h0c3.4 0 6.2-2.2 7.2-5.4l7.6-25.7 8.7 26c1 3 3.8 5.2 7.1 5.2h.1c3.1 0 5.8-2 6.6-4.9l12.6-43.3H86.4l-9.1 30.8z"/><linearGradient id="H" gradientUnits="userSpaceOnUse"/></defs><g filter="drop-shadow(1px 2px 8px rgba(0, 0, 0, 10.35))"><use href="#B" fill="url(#A)" style="mix-blend-mode:screen filter"/><use href="#F" fill="url(#E)" style="mix-blend-mode:screen"/><use href="#F" x="3" fill="url(#C)" style="mix-blend-mode:screen"/><use href="#F" x="1.5" y="1.5" fill="url(#D)" style="mix-blend-mode:screen"/><g id="X"><use href="#G" x="3" fill="url(#C)" style="mix-blend-mode:screen"/><use href="#G" x="1.5" y="1.5" fill="url(#D)" style="mix-blend-mode:screen"/><use href="#G" fill="url(#E)" style="mix-blend-mode:screen"/></g></g></svg>