<svg xmlns="http://www.w3.org/2000/svg" viewBox="0 0 470 468.2"><defs><linearGradient id="A" x1="127" y1="127" x2="382" y2="382" href="#H"><stop offset="0" stop-color="#222"/><stop offset="1" stop-color="#606060"/></linearGradient><path id="B" opacity=".5" d="M235 470L0 235 235 0 470 235z"/><linearGradient id="C" x1="0" y1="470" x2="470" y2="0" href="#H"><stop offset="0" stop-color="#ffed00"/><stop offset="1" stop-color="#312783"/></linearGradient><linearGradient id="D" x1="0" y1="0" x2="470" y2="470" href="#H"><stop offset="0" stop-color="#e6007e"/><stop offset="1" stop-color="#009fe3"/></linearGradient><linearGradient id="E" x1="470" y1="0" x2="0" y2="470" href="#H"><stop offset="0" stop-color="#009640"/><stop offset="1" stop-color="#e30613"/></linearGradient><path id="G" d="M324.3 262.5l-51.4-155.1a43.3 43.3 0 0 0-41.1-29.7h0c-19.3 0-36.1 12.8-41.6 31.2L146.4 258 91.1 77.8H27.5l78.8 257.9c5.3 17.3 21.2 29.1 39.4 29.1h0c19.7 0 37.2-13 42.7-31.9l44.8-153.2 51.3 154.5c6 18.2 23.1 30.4 42.1 30.4h.8c18.3 0 34.3-12.1 39.6-29.7l75.2-257.3h-63.9l-54 184.9h0 0zm69.9 141.4v42.9h10.7v-34.9a2.65 2.65 0 0 1 2.6-2.6h18.7c2.9 0 5.3 2.3 5.3 5.2v.1 32.2h10.7v-32.1c0-8.9-7.2-16.1-16.1-16.1h-26.8c-2.7 0-5.1 2.4-5.1 5.3h0zm-53.8 10.7v16.2c0 8.9 7.2 16 16 16h16.2v-10.7h-16.2a5.34 5.34 0 0 1-5.3-5.3v-16.3a5.34 5.34 0 0 1 5.3-5.3h16.3a5.34 5.34 0 0 1 5.3 5.3v37.6c0 3-2.4 5.4-5.4 5.4h-21.4v10.7h21.5c8.9 0 16-7.2 16-16v-37.6c0-8.9-7.2-16-16-16h-16.2c-8.8 0-16.1 7.2-16.1 16h0zm-16.1-16H335v48.3h-10.7v-48.3zm0-24.2H335v10.7h-10.7v-10.7zm-10.7 34.9v-10.7h-24.2c-7.5 0-13.5 6-13.5 13.5h0c0 7.5 6 13.5 13.5 13.5h13.5c3 0 5.4 2.4 5.4 5.4h0c0 3-2.4 5.4-5.4 5.4h-64.3c-3 0-5.4-2.4-5.4-5.4v-16.1c0-3 2.4-5.4 5.4-5.4h16.1c3 0 5.4 2.4 5.4 5.4h0c0 3-2.4 5.4-5.4 5.4h-16.1V431h16.1c8.9 0 16-7.2 16-16v-.1c0-8.9-7.2-16-16-16h-16.2c-8.8 0-16 7.2-16 16v16.3c0 8.8 7.2 16 16 16H303c8.8 0 16-7.2 16-16v-.2c0-8.8-7.2-16-16-16h-13.5a2.65 2.65 0 0 1-2.6-2.6h0a2.65 2.65 0 0 1 2.6-2.6h24l.1-.5h0 0zm-107.2-34.9v56.4c0 3-2.4 5.4-5.4 5.4h-16.1c-3 0-5.4-2.4-5.4-5.4v-16.1c0-3 2.4-5.4 5.4-5.4H201v-10.7h-16.1c-8.9 0-16.1 7.2-16.1 16.1v16.1c0 8.9 7.2 16.1 16.1 16.1H201c8.9 0 16.1-7.2 16.1-16.1v-56.4h-10.7 0zm-48.3 42.9h-12.7c-3 0-5.4 2.4-5.4 5.4h0c0 3 2.4 5.4 5.4 5.4h12.7c3 0 5.4-2.4 5.4-5.4h0c0-3-2.4-5.4-5.4-5.4zm-34.2-18.7h10.7v48.3h-10.7v-48.3zm.1-24.2h10.7v10.7H124v-10.7zm-21.5 24.2h10.7v48.3h-10.7v-48.3zm0-24.2h10.7v10.7h-10.7v-10.7zm-25.1 55.2l-8.7-26.1c-1-3-3.7-5-7-5h0c-3.2 0-6.1 2.2-7 5.3l-7.3 25.1-9.3-30.3H27.5L40.7 442c.8 2.9 3.6 4.9 6.6 4.9h0c3.4 0 6.2-2.2 7.2-5.4l7.6-25.7 8.7 26c1 3 3.8 5.2 7.1 5.2h.1c3.1 0 5.8-2 6.6-4.9l12.6-43.3H86.5l-9.1 30.8h0z"/><linearGradient id="H" gradientUnits="userSpaceOnUse"/></defs><g filter="drop-shadow(1px 2px 8px rgba(0, 0, 0, 10.35))"><use href="#B" fill="url(#A)" style="mix-blend-mode:screen filter"/><use href="#F" fill="url(#E)" style="mix-blend-mode:screen"/><use href="#F" x="3" fill="url(#C)" style="mix-blend-mode:screen"/><use href="#F" x="1.5" y="1.5" fill="url(#D)" style="mix-blend-mode:screen"/><g id="X"><use href="#G" x="3" fill="url(#C)" style="mix-blend-mode:screen"/><use href="#G" x="1.5" y="1.5" fill="url(#D)" style="mix-blend-mode:screen"/><use href="#G" fill="url(#E)" style="mix-blend-mode:screen"/></g></g></svg>