<?xml version="1.0" encoding="utf-8"?>
<!-- Generator: Adobe Illustrator 25.2.0, SVG Export Plug-In . SVG Version: 6.00 Build 0)  -->
<!DOCTYPE svg PUBLIC "-//W3C//DTD SVG 1.1//EN" "http://www.w3.org/Graphics/SVG/1.1/DTD/svg11.dtd" [
	<!ENTITY ns_extend "http://ns.adobe.com/Extensibility/1.0/">
	<!ENTITY ns_ai "http://ns.adobe.com/AdobeIllustrator/10.0/">
	<!ENTITY ns_graphs "http://ns.adobe.com/Graphs/1.0/">
	<!ENTITY ns_vars "http://ns.adobe.com/Variables/1.0/">
	<!ENTITY ns_imrep "http://ns.adobe.com/ImageReplacement/1.0/">
	<!ENTITY ns_sfw "http://ns.adobe.com/SaveForWeb/1.0/">
	<!ENTITY ns_custom "http://ns.adobe.com/GenericCustomNamespace/1.0/">
	<!ENTITY ns_adobe_xpath "http://ns.adobe.com/XPath/1.0/">
]>
<svg version="1.1" id="Calque_1" xmlns:x="&ns_extend;" xmlns:i="&ns_ai;" xmlns:graph="&ns_graphs;"
	 xmlns="http://www.w3.org/2000/svg" xmlns:xlink="http://www.w3.org/1999/xlink" x="0px" y="0px" viewBox="0 0 470 470"
	 style="enable-background:new 0 0 470 470;" xml:space="preserve">
<style type="text/css">
	.st0{fill:#1D1D1B;}
</style>
<metadata>
	<sfw  xmlns="&ns_sfw;">
		<slices></slices>
		<sliceSourceBounds  bottomLeftOrigin="true" height="327.8" width="469.8" x="0.2" y="142.9"></sliceSourceBounds>
	</sfw>
</metadata>
<path class="st0" d="M397.2-0.7l-62.8,206l-50-170.4C278,13.8,258.8-0.7,236.8-0.7c-0.6,0-1.1,0-1.7,0c-0.6,0-1.1,0-1.7,0
	c-22,0-41.3,14.5-47.5,35.6l-50,170.4L73-0.7H0.2l90.1,294.6c6.1,19.8,24.2,33.2,45.1,33.2c22.5,0,42.4-14.9,48.8-36.5l50.9-173.8
	L286,290.6c6.5,21.6,26.3,36.5,48.8,36.5c20.9,0,39-13.4,45.1-33.2L470-0.7H397.2z"/>
</svg>
