<svg xmlns="http://www.w3.org/2000/svg" viewBox="0 0 64 64" xmlns:v="https://vecta.io/nano"><path d="M47.8 30.1c-.5 0-.9-.1-1.3-.1-1.7 3.5-4.7 6.3-8.3 7.8l.8 2.4h2.5l-2 1.6.7 2.4-2-1.5-2 1.5.8-2.4-2-1.6h2.4l.8-2.4c-2 .8-4.1 1.2-6.2 1.2-2.2 0-4.2-.4-6.1-1.2l.8 2.4h2.5l-2 1.6.7 2.4-2-1.5-2 1.5.8-2.4-2-1.6h2.4l.8-2.4c-3.5-1.4-6.3-4-8.1-7.3-.5-.2-1-.3-1.6-.3h-.3c.8 1.7 1.8 3.3 3.1 4.7v16.5l13-4.3 13 4.3V34.9c1.3-1.4 2.3-3 3.1-4.8h-.3 0zM34 45.9l-2-1.5-2 1.5.8-2.4-2-1.6h2.4l.8-2.5.8 2.5h2.5l-2 1.6.7 2.4zM21.8 30.2l3.9 4c.9.9 2.4 1 3.4.1.1-.1.3-.3.4-.5s.3-.3.6-.3c.2 0 .5.1.7.2l.7.7c.4.4 1 .7 1.6.7h.1c.6 0 1.2-.3 1.7-.8.5-.6.7-1.3.5-2-.1-.4.1-.7.4-.9s.7-.1 1 .1c.9.9 2.3 1 3.2.2.5-.4.8-1 .8-1.7a2.34 2.34 0 0 0-.7-1.7L33.9 22l-3.1 2.8c-.8.7-1.7 1.1-2.8 1.1h-.3-.4c-.8-.1-1.5-.5-2.1-1-.9-.8-1.4-1.9-1.4-3 0-1.2.5-2.3 1.3-3.1l5.2-4.9a7.55 7.55 0 0 1 1.4-1.1h-4c-1.8 0-3.5.6-4.8 1.8l-2.6 2.2c-.1.1-.3.2-.5.2h-6.1c-.2 0-.3-.1-.5-.2l-.5-.4v13l.5-.4c.2-.1.3-.2.5-.2h5c1.2.1 2.3.5 3.1 1.4z"/><path d="M51.2 16.4l-.5.4c-.2.1-.3.2-.5.2h-6.9 0l-2.1-2.1c-1.3-1.3-3.2-2.1-5.1-2.1-1.8 0-3.6.7-4.9 2L26 19.7c-.6.6-.9 1.3-.9 2.1s.4 1.6 1 2.1c.4.4.9.6 1.4.7h.2.3c.7 0 1.4-.3 1.9-.8l4.9-4.5c.3-.2.6-.2.9 0s.2.6 0 .9l-.9.8 5.6 5.6h0c1.3 1.3 3.2 2.1 5.1 2.1h4.8c.2 0 .3.1.5.2l.5.4V16.4z"/><g fill="#fff"><path d="M32.8 41.9l-.8-2.5-.8 2.5h-2.5l2 1.5-.7 2.5 2-1.5 2 1.5-.8-2.5 2-1.5z"/><path d="M58 0H6a6.02 6.02 0 0 0-6 6v52a6.02 6.02 0 0 0 6 6h52a6.02 6.02 0 0 0 6-6V6a6.02 6.02 0 0 0-6-6zM13.3 29l-.5.4v-13l.5.4c.2.1.3.2.5.2h6.1c.2 0 .4-.1.5-.2l2.6-2.2c1.4-1.1 3.1-1.8 4.8-1.8h4c-.5.3-1 .6-1.4 1.1l-5.2 4.9c-.8.8-1.3 1.9-1.3 3.1s.5 2.3 1.4 3c.6.5 1.3.9 2.1 1h.4.3c1 0 2-.4 2.8-1.1L34 22l6.3 6.3A2.34 2.34 0 0 1 41 30c0 .6-.3 1.2-.8 1.7a2.24 2.24 0 0 1-3.2-.2c-.3-.3-.6-.3-1-.1-.3.2-.5.5-.4.9.1.7-.1 1.5-.5 2s-1 .8-1.7.8h-.1c-.6 0-1.2-.2-1.6-.7l-.7-.7c-.2-.2-.4-.3-.7-.2-.2 0-.5.2-.6.3-.1.2-.3.3-.4.5-1 .9-2.5.8-3.4-.1l-3.9-4c-.8-.8-1.9-1.3-3.1-1.3h-5c-.3 0-.5 0-.6.1zM45 34.9v16.4L32 47l-13 4.3V34.8c-1.3-1.4-2.3-3-3.1-4.7h.3c.6 0 1.1.1 1.6.3 1.8 3.3 4.6 5.9 8.1 7.3l-.8 2.4h-2.4l2 1.6-.8 2.4 2-1.5 2 1.5-.7-2.4 2-1.6h-2.5l-.8-2.4c1.9.8 3.9 1.2 6.1 1.2 2.1 0 4.2-.4 6.1-1.2l-.8 2.4h-2.4l2 1.6-.8 2.4 2-1.5 2 1.5-.7-2.4 2-1.6h-2.5l-.8-2.4c3.6-1.5 6.6-4.3 8.3-7.8.4.1.9.1 1.3.1h0 .3a14.38 14.38 0 0 1-3 4.9zm6.2-5.5l-.5-.4c-.2-.1-.3-.2-.5-.2h-4.8c-1.9 0-3.7-.8-5.1-2.1h0l-5.6-5.6.9-.8c.3-.2.3-.6 0-.9s-.6-.3-.9 0L30 23.9c-.6.5-1.2.8-1.9.8h-.3-.2c-.5-.1-1-.3-1.4-.7-.6-.5-1-1.3-1-2.1s.3-1.6.9-2.1l5.2-4.9c1.3-1.3 3.1-2 4.9-2 1.9 0 3.7.8 5.1 2.1l2.1 2.1h0 6.9c.2 0 .3-.1.5-.2l.5-.4v12.9z"/></g></svg>