<svg xmlns="http://www.w3.org/2000/svg" viewBox="0 0 64 64" xmlns:v="https://vecta.io/nano"><g fill="#fff"><path d="M22.8 16.9v-2.1l-7.1 2.8V20c1.5-1.5 3.4-2.6 5.6-2.9.5-.1 1-.2 1.5-.2zm.2 10.8a.65.65 0 0 0 .6-.6.65.65 0 0 0-.6-.6.65.65 0 0 0-.6.6c0 .3.2.6.6.6z"/><path d="M17.7 31.6l1.4-.5-.5 1.4c1 .9 2.3 1.4 3.7 1.5l.6-1.3.6 1.3c1.4-.1 2.8-.7 3.8-1.6l-.3-1.2 1.3.4c.9-1 1.4-2.3 1.6-3.7l-1.3-.7 1.3-.7c-.1-1.4-.7-2.7-1.6-3.7l-1.3.4.4-1.3c-1.1-.9-2.4-1.5-3.8-1.6l-.6 1.3-.6-1.3c-1.4.1-2.7.7-3.7 1.5l.5 1.4-1.4-.5c-.9 1.1-1.5 2.4-1.6 3.8l1.2.6-1.2.6a5.7 5.7 0 0 0 1.5 3.9zm2.8-4.5l1.4-.5-1.8-2.4 2 1.5.9-3.6.9 3.6 2-1.5-1.9 2.4 1.4.5-1.4.5 1.8 2.4-2-1.5L23 32l-.9-3.6-2 1.5 1.8-2.4-1.4-.4zm10.9 5.7c-1.5 2.2-3.9 3.9-6.7 4.3h-.3v3.6l1.7 1.7 5.3-5.4v-4.2zm-10.1 2.9c2.9.6 5.8-.3 7.9-2.4s3-4.9 2.4-7.9c-.7-3.4-3.4-6.2-6.8-6.8l-1.7-.2c-2.3 0-4.5.9-6.1 2.6-2.1 2.1-2.9 4.9-2.4 7.9.5 3.3 3.2 6.1 6.7 6.8zm3.2-16.1a7.71 7.71 0 0 1 6 6 7.66 7.66 0 0 1-9 9 7.71 7.71 0 0 1-6-6c-1.1-5.4 3.6-10 9-9zm6.9 21.7L26.7 46h4.7zm16.7-21.7l-6.8-3.5V27l6.8-6.8zM33.9 45.4c-.3-.3-.5-.6-.6-.9-.1-.4-.2-.7-.2-1.1 0-.3 0-.6.1-.9s.2-.5.4-.8c.2-.2.3-.4.6-.6.2-.2.5-.3.7-.5.1-.1.3-.1.4-.1s.3-.1.4-.1L34 38.7l-1.1 1.1V46h1.6l-.6-.6zm9.7-12.8c.1-.1.1-.3.1-.4 0-.2.1-.3.1-.5.1-.3.3-.5.5-.7l.6-.6c.2-.2.5-.3.8-.4s.6-.1.9-.1c.4 0 .8.1 1.1.2.1.1.3.1.4.2v-5.7l-6.2 6.2 1.7 1.8zm-3.8-16.7l-6.9 2.8v6.2c.3 1.3.3 2.6.1 3.9 0 .2-.1.3-.1.5v6.2l6.9-7V15.9zm-8.4 5.5v-2.8l-7-3.6v2c2.2.3 4.2 1.3 5.8 2.9l1.2 1.5zm12.6 26c-.2-.1-.5-.2-.7-.2-.2-.1-.4-.1-.5-.1-.7 0-1.3-.1-2 0s-1.4 0-2 0l-19.6.1v1.2h26v-.5c-.1 0-.3-.1-.5-.2-.3-.1-.5-.2-.7-.3zm2.6-4c.2.4.3.7.3 1.1a2.39 2.39 0 0 1-.2.9c-.1.3-.3.5-.5.8l-.6.6 2.5.8v-4h-.3c-.5.1-.8 0-1.2-.2zm-27.4 6.8h22.6.2.3.3.2l2.4-.8v-.5h-26v1.3zm3.6-6.8l-2.7-2.7-4.4 4.5v.8h1v.6h1.8V46h4.3zm1.6 2.6h1l-1-1.1zM58 0H6a6.02 6.02 0 0 0-6 6v52a6.02 6.02 0 0 0 6 6h52a6.02 6.02 0 0 0 6-6V6a6.02 6.02 0 0 0-6-6zm-6.9 41.2c-.1.1-.1.3-.3.4l-1.3 1.3V48H49l1.9.7-7.8 2.6H18.5v-.6h-1.8v.6h-1.3c-1.5 0-2.6-1.2-2.6-2.6 0-.2 0-.4.1-.5l-.1.1v-4.4l1.3-1.3V32.1c-1.2-2-1.6-4.4-1.2-6.8.2-1.2.6-2.3 1.2-3.3v-5.6l9.5-3.7 8.5 4.4 8.4-3.4 9 4.7v.1L51 17v4.4l-1.5 1.5v8.6l.2.2c.3.3.5.6.6.9.1.4.2.7.2 1.1 0 .3 0 .6-.1.9s-.2.5-.4.8c-.2.2-.3.4-.6.6v2.3l1.3 1.3c.2.2.3.5.3.8.2.5.2.6.1.8zm-5.4-5c-.1-.1-.1-.3-.1-.4v-.1c0-.1 0-.2.1-.3v-.1c.1-.1.1-.3.2-.4s.2-.1.3-.2c.1 0 .2-.1.3-.1h.1c.2 0 .4-.1.5-.1.1-.1.3-.1.4-.2 0 0 .1 0 .1-.1l.3-.3c.3-.5.4-1.1.1-1.7-.1-.3-.3-.5-.5-.7l-.1-.1h-.1c-.3-.1-.5-.2-.9-.2a1.69 1.69 0 0 0-1 .3c-.3.2-.5.4-.6.7-.1.1-.1.3-.1.4s0 .2-.1.2c0 .1-.1.2-.1.3s-.1.2-.2.3a1.38 1.38 0 0 1-.4.3h-.2c-.2.1-.5.1-.7 0h-.1c-.1-.1-.3-.2-.4-.3l-2.9-2.9-1.5 1.5c-.5.4-.5 1.3 0 1.7.2.2.5.3.8.3h.2c.1 0 .2.1.3.1s.1.1.2.1h0c1.1.6 1.2 2.4 0 3h0-.1s-.1 0-.1.1c-.1 0-.2.1-.4.1h-.1-.2-.3-.2a.76.76 0 0 1-.4-.2c-.2-.1-.3-.2-.4-.3s-.1-.2-.2-.3l-.3-.8v-.1-.1h0c-.1-.2-.1-.3-.2-.5-.4-.5-1.3-.5-1.7 0l-1.5 1.5 1.2 1.2 1.7 1.7a1.38 1.38 0 0 1 .3.4.9.9 0 0 1 .1.5c0 .1 0 .2-.1.3-.1.3-.4.6-.7.8-.1 0-.1 0-.2.1-.1 0-.2.1-.3.1s-.2.1-.3.1c-.2.1-.3.2-.5.3-.5.4-.7.9-.6 1.3v.1c0 .2.1.4.1.5.1.2.2.4.4.6s.3.3.6.4a.9.9 0 0 0 .5.1h.1.1c.5 0 .9-.1 1.3-.6.1-.1.2-.3.3-.5.1-.1.1-.3.1-.5 0-.1 0-.1.1-.2 0-.1.1-.2.1-.3s.1-.2.2-.3.2-.2.4-.3h.3.7c.1.1.3.1.4.2l1.5 1.5 1.4 1.4 1.5-1.5c.2-.2.4-.5.4-.9 0-.1 0-.2-.1-.3v-.2c-.1-.1-.2-.3-.3-.4s-.2-.1-.3-.2c-.2-.1-.4-.1-.5-.2h-.1c-.1 0-.2-.1-.3-.1-.2-.1-.3-.2-.5-.3a1.38 1.38 0 0 1-.3-.4 1.69 1.69 0 0 1-.3-1v-.2c.2-.7.8-1.4 1.6-1.6h.1.1a1.69 1.69 0 0 1 1 .3c.1.1.3.2.4.3s.2.3.3.4c0 .1.1.2.1.3s.1.2.1.3v.1c.1.2.1.4.3.5.1.2.3.2.5.3.1 0 .2.1.3.1s.2 0 .3-.1c.2-.1.4-.1.5-.3l.7-.7.8-.8-3-2.3c-.2-.1-.2-.2-.3-.4zm-22.9 3v-2c-.8 0-1.5-.1-2.2-.3l2.2 2.3zM14.9 47c-.4.1-.7.2-1 .5-.1.1-.2.3-.3.5s-.1.4-.1.6 0 .4.1.6.2.3.3.5c.3.3.6.4 1 .5s.8.1 1.1 0v-3.1c-.3-.1-.7-.1-1.1-.1zm.8-12.8v6.7l4.2-4.1c-1.5-.5-2.9-1.3-4.2-2.6 0 .1 0 0 0 0z"/></g><path d="M49.6 42.8l1.3-1.3c.1-.1.2-.2.3-.4s.1-.3.1-.4c0-.3-.1-.6-.3-.8l-1.3-1.3v-2.3l.6-.6c.2-.2.3-.5.4-.8s.1-.6.1-.9c0-.4-.1-.8-.2-1.1-.1-.4-.4-.7-.6-.9l-.2-.2v-8.6l1.5-1.5v-4.4l-1.5 1.5v-.1l-9-4.7-8.4 3.4-8.5-4.4-9.5 3.7v5.6c-.6 1-1 2.1-1.2 3.3-.4 2.4 0 4.7 1.2 6.8v10.3L13.1 44v4.4l.1-.1c0 .2-.1.4-.1.5 0 1.5 1.2 2.6 2.6 2.6H17v-.6h1.8v.6h24.6l7.8-2.6L49 48h.6v-5.2zm-8.3-26.7l6.8 3.5v.6L41.3 27V16.1zm6.8 8.5v5.7a.76.76 0 0 0-.4-.2c-.4-.1-.7-.2-1.1-.2-.3 0-.6 0-.9.1s-.5.2-.8.4a1.72 1.72 0 0 0-.6.6c-.2.2-.3.5-.5.7-.1.2-.1.3-.1.5s-.1.3-.1.5L41.9 31l6.2-6.4zm-15.2 4.7c0-.2.1-.3.1-.5.2-1.3.2-2.6-.1-3.9v-6.2l6.9-2.8v12.6l-6.9 7v-6.2zm0 10.5l1.1-1.1 1.7 1.7c-.1 0-.3.1-.4.1s-.3.1-.4.1c-.3.1-.5.3-.7.5l-.6.6c-.2.2-.3.5-.4.8s-.1.6-.1.9c0 .4.1.8.2 1.1.1.4.4.7.6.9l.6.6h-1.6v-6.2zM24.4 15l7 3.6v2.8l-1.2-1.5c-1.6-1.6-3.6-2.6-5.8-2.9v-2zm-8.7 2.7l7.1-2.8V17c-.5 0-1.1 0-1.6.1-2.1.4-4.1 1.4-5.6 2.9v-2.3zm1.1 3.2c1.7-1.7 3.8-2.6 6.1-2.6.6 0 1.1.1 1.7.2 3.4.7 6.2 3.4 6.8 6.8.6 2.9-.3 5.8-2.4 7.9s-4.9 3-7.9 2.4c-3.4-.7-6.2-3.4-6.8-6.8-.4-2.9.4-5.8 2.5-7.9zm9.3 21.6l-1.7-1.7v-3.6h.3c2.7-.5 5.1-2.1 6.7-4.3v4.3l-5.3 5.3zm5.3-1.2V46h-4.7l4.7-4.7zm-6 4.7h-1v-1l1 1zm-2.6-8.7v2L20.6 37a8.33 8.33 0 0 0 2.2.3zm-2.9-.5l-4.2 4.1v-6.7l.1.1c1.2 1.2 2.6 2 4.1 2.5zM16 50.2c-.4.1-.7.1-1.1 0s-.7-.2-1-.5c-.1-.1-.2-.3-.3-.5s-.1-.4-.1-.6 0-.4.1-.6.2-.3.3-.5c.3-.3.6-.4 1-.5s.7-.1 1.1 0v3.2zm2.5-3.6h-1.8V46h-1v-.8l4.5-4.5 2.7 2.7V46h-4.4v.6zm26.7 2.8l-2.4.8h-.2-.3-.3-.2-22.6v-1.3h26v.5zm0-1.1h-26v-1.2l19.5-.1h2 2c.1 0 .3 0 .5.1s.4.1.7.2c.2.1.5.2.7.3s.4.1.5.2v.5zm2.9-.6l-2.5-.8.6-.6c.2-.2.4-.5.5-.8s.2-.6.2-.9c0-.4-.1-.8-.3-1.1.4.2.7.3 1.1.3h.3v3.9zm0-7.4l-.7.7c-.1.2-.3.2-.5.3-.1 0-.2.1-.3.1s-.2 0-.3-.1a.55.55 0 0 1-.5-.3c-.1-.1-.2-.3-.3-.5v-.1c0-.1-.1-.2-.1-.3s-.1-.2-.1-.3c-.1-.2-.2-.3-.3-.4a1.38 1.38 0 0 0-.4-.3 1.69 1.69 0 0 0-1-.3h-.1-.1c-.8.1-1.4.8-1.6 1.6v.2a1.69 1.69 0 0 0 .3 1c.1.1.2.3.3.4s.3.2.5.3c.1 0 .2.1.3.1h.1c.2 0 .4.1.5.2.1 0 .2.1.3.2s.2.2.3.4v.2c0 .1.1.2.1.3 0 .3-.1.6-.4.9l-1.5 1.5-1.4-1.4-1.5-1.5c-.1-.1-.2-.2-.4-.2-.2-.1-.4-.1-.7 0h-.3c-.1.1-.3.1-.4.3.1-.5.1-.4 0-.3 0 .1-.1.2-.1.3s0 .1-.1.2c0 .2-.1.3-.1.5-.1.2-.2.3-.3.5-.3.5-.8.7-1.3.6h-.1-.1c-.2 0-.4-.1-.5-.1-.2-.1-.4-.2-.6-.4s-.3-.3-.4-.6c-.1-.2-.1-.3-.1-.5v-.1c0-.5.1-.9.6-1.3.1-.1.3-.2.5-.3.1 0 .2-.1.3-.1s.2-.1.3-.1.1 0 .2-.1c.3-.2.6-.5.7-.8 0-.1.1-.2.1-.3 0-.2 0-.3-.1-.5s-.1-.3-.3-.4l-1.7-1.7-1.2-1.2 1.5-1.5c.4-.5 1.3-.5 1.7 0 .1.1.2.3.2.5h0v.1.1l.3.8c.1.1.1.2.2.3a1.38 1.38 0 0 0 .4.3c.1.1.3.1.4.2h.2.3.2.1c.1 0 .2-.1.4-.1 0 0 .1 0 .1-.1h.1 0c1.2-.6 1.1-2.4 0-3h0c-.1 0-.1-.1-.2-.1s-.2-.1-.3-.1H39c-.3-.1-.6-.1-.8-.3-.5-.4-.5-1.3 0-1.7l1.5-1.5 2.9 2.9a1.38 1.38 0 0 0 .4.3h.1c.2.1.5.1.7 0h.2c.1-.1.3-.2.4-.3s.1-.2.2-.3c0-.1.1-.2.1-.3s0-.2.1-.2c0-.1.1-.3.1-.4.1-.3.3-.6.6-.7a1.69 1.69 0 0 1 1-.3c.3 0 .6.1.9.2h.1c.1 0 .1.1.1.1.2.2.4.4.5.7.2.5.2 1.2-.1 1.7l-.3.3s-.1 0-.1.1c-.1.1-.2.2-.4.2-.2.1-.3.1-.5.1h-.1c-.1 0-.2.1-.3.1s-.2.1-.3.2-.2.2-.2.4v.1c0 .1-.1.2-.1.3v.1c0 .1 0 .3.1.4s.1.3.3.4l2.9 2.9-.9.8zM23.8 25.7l-.8-3.5-.9 3.6-2-1.5 1.8 2.4-1.4.5 1.4.5-1.8 2.3 2-1.5.9 3.5.9-3.6 2 1.5-1.9-2.3 1.4-.5-1.4-.5 1.8-2.4-2 1.5zm-.8 2a.65.65 0 0 1-.6-.6.65.65 0 0 1 .6-.6.65.65 0 0 1 .6.6.65.65 0 0 1-.6.6zm1.5-8.1a7.66 7.66 0 0 0-9 9 7.71 7.71 0 0 0 6 6 7.66 7.66 0 0 0 9-9 7.71 7.71 0 0 0-6-6zm5.3 8.3c-.1 1.4-.7 2.7-1.6 3.7l-1.2-.4.4 1.3c-1.1.9-2.4 1.5-3.8 1.6l-.6-1.3-.6 1.3c-1.4-.1-2.7-.7-3.7-1.5l.5-1.4-1.4.5c-.9-1.1-1.5-2.4-1.6-3.8l1.2-.6-1.2-.6c.1-1.4.7-2.8 1.6-3.8l1.4.5-.5-1.4c1-.9 2.3-1.4 3.7-1.5l.6 1.3.6-1.3c1.4.1 2.8.7 3.8 1.6l-.4 1.1 1.3-.4c.9 1 1.4 2.3 1.6 3.7l-1.3.7 1.2.7z"/></svg>