<?xml version="1.0" encoding="utf-8"?>
<!-- Generator: Adobe Illustrator 25.2.0, SVG Export Plug-In . SVG Version: 6.00 Build 0)  -->
<!DOCTYPE svg PUBLIC "-//W3C//DTD SVG 1.1//EN" "http://www.w3.org/Graphics/SVG/1.1/DTD/svg11.dtd" [
	<!ENTITY ns_extend "http://ns.adobe.com/Extensibility/1.0/">
	<!ENTITY ns_ai "http://ns.adobe.com/AdobeIllustrator/10.0/">
	<!ENTITY ns_graphs "http://ns.adobe.com/Graphs/1.0/">
	<!ENTITY ns_vars "http://ns.adobe.com/Variables/1.0/">
	<!ENTITY ns_imrep "http://ns.adobe.com/ImageReplacement/1.0/">
	<!ENTITY ns_sfw "http://ns.adobe.com/SaveForWeb/1.0/">
	<!ENTITY ns_custom "http://ns.adobe.com/GenericCustomNamespace/1.0/">
	<!ENTITY ns_adobe_xpath "http://ns.adobe.com/XPath/1.0/">
]>
<svg version="1.1" id="Calque_1" xmlns:x="&ns_extend;" xmlns:i="&ns_ai;" xmlns:graph="&ns_graphs;"
	 xmlns="http://www.w3.org/2000/svg" xmlns:xlink="http://www.w3.org/1999/xlink" x="0px" y="0px" viewBox="0 0 64 64"
	 style="enable-background:new 0 0 64 64;" xml:space="preserve">
<style type="text/css">
	.st0{fill:#FFFFFF;}
</style>
<metadata>
	<sfw  xmlns="&ns_sfw;">
		<slices></slices>
		<sliceSourceBounds  bottomLeftOrigin="true" height="64" width="64" x="-1.1" y="-40.5"></sliceSourceBounds>
	</sfw>
</metadata>
<path class="st0" d="M58,0H6C2.7,0,0,2.7,0,6v52c0,3.3,2.7,6,6,6h52c3.3,0,6-2.7,6-6V6C64,2.7,61.3,0,58,0z"/>
<rect x="16" y="16" class="st0" width="32" height="32"/>
<g>
	<path d="M24.5,28.8l0.8,3.1l0.8-3.1l1.8,1.3L26.2,28l1.2-0.4l-1.2-0.4l1.6-2.1L26,26.4l-0.8-3.1l-0.8,3.1l-1.8-1.3l1.6,2.1
		l-1.2,0.4l1.2,0.4l-1.6,2.1L24.5,28.8z M25.2,27.1c0.3,0,0.5,0.2,0.5,0.5c0,0.3-0.2,0.5-0.5,0.5c-0.3,0-0.5-0.2-0.5-0.5
		C24.7,27.3,24.9,27.1,25.2,27.1z"/>
	<path d="M37.8,16.9l-6.9,2.2l-7-3l-7.5,2.4v22l-0.9,0.9v3.7l4.6-4.6l4.3,1.1l1.7,1.7h-7.4c-1.2,0-2.2,1-2.2,2.2
		c0,1.2,1,2.2,2.2,2.2H42l6.4-2.2l-6.5-2.2c0,0,0,0,0,0h-2.7l0.2-0.1l-1.5-1.3c0,0,0,0,0,0c0.2,0,0.4,0,0.6-0.1
		c0.2-0.1,0.4-0.2,0.6-0.3s0.3-0.3,0.5-0.4c0.1-0.2,0.3-0.4,0.3-0.6c0-0.1,0.1-0.2,0.1-0.3l0.8,0.3l1.5,1.5c0.1,0.1,0.2,0.1,0.3,0.2
		c0.1,0,0.2,0.1,0.3,0.1c0.2,0,0.4-0.1,0.6-0.3l0.3-0.3l1.1,0.4v-1.6c0-0.1,0.1-0.1,0.1-0.2c0.1-0.2,0.1-0.4,0.1-0.7
		c0-0.3-0.1-0.6-0.2-0.9c0.3,0.1,0.5,0.2,0.9,0.2c0.2,0,0.5,0,0.7-0.1c0.2-0.1,0.4-0.2,0.6-0.4l1.1-1.1c0.1-0.1,0.1-0.2,0.2-0.3
		c0-0.1,0.1-0.2,0.1-0.3c0-0.2-0.1-0.5-0.3-0.6L46,34.2c0.1,0,0.2-0.1,0.3-0.1c0.1,0,0.2-0.1,0.3-0.1c0.2-0.1,0.4-0.2,0.6-0.3
		c0.2-0.1,0.3-0.3,0.4-0.5c0.1-0.2,0.2-0.4,0.3-0.6s0.1-0.4,0.1-0.6c0-0.3-0.1-0.6-0.2-0.8c-0.1-0.3-0.3-0.5-0.5-0.7l-0.9-0.9
		c-0.2-0.2-0.4-0.4-0.7-0.5c-0.3-0.1-0.5-0.2-0.8-0.2c0,0,0,0,0,0v-3.3l2.6-2.6v-3.7l-2.6,2.6v-1.9L37.8,16.9z M38.2,17.8l6,2.6v2.2
		l-6,6.1V17.8z M44.2,26.3V29c-0.2,0.1-0.3,0.1-0.5,0.2c-0.2,0.1-0.3,0.3-0.5,0.4c-0.1,0.2-0.3,0.4-0.3,0.6c0,0.1-0.1,0.2-0.1,0.4
		c0,0.1-0.1,0.2-0.1,0.3c0,0,0,0,0,0c0,0,0,0,0,0l-1.5-1.5L44.2,26.3z M31.3,19.8l6.1-2v11.7l-6.1,6.2v-2.4c1.1-1.2,1.9-2.7,2.2-4.3
		c0.5-2.8-0.5-5.3-2.2-7.2V19.8z M35,39.8l-0.3,0.1L31.5,39l3.8-3.8l1.5,1.5c-0.1,0-0.2,0.1-0.3,0.1c-0.1,0-0.2,0.1-0.3,0.1
		c-0.2,0.1-0.4,0.2-0.6,0.3c-0.2,0.1-0.3,0.3-0.4,0.5s-0.2,0.4-0.3,0.6s-0.1,0.4-0.1,0.6C34.8,39.3,34.9,39.5,35,39.8z M24.3,17.1
		l6.2,2.6v1.4c-1.7-1.4-3.9-2.1-6.2-1.9V17.1z M26.7,20.3c2.9,0.6,5.3,2.9,5.8,5.8c1,5.2-3.5,9.7-8.7,8.7c-2.9-0.6-5.3-2.9-5.8-5.8
		C17,23.8,21.5,19.3,26.7,20.3z M30.5,34v2.4l-1.8,1.8l-4.4-1.2v-1.2c0.8,0.1,1.5,0.1,2.3-0.1C28.1,35.6,29.4,34.9,30.5,34z
		 M17.2,19.1l6.3-2v2.3c-3,0.6-5.5,2.9-6.3,5.8V19.1z M20,39.6c-0.2,0-0.4-0.1-0.6-0.2c-0.2-0.1-0.4-0.3-0.5-0.6
		c-0.1-0.1-0.1-0.3-0.1-0.5s0-0.3,0-0.5c0-0.2,0.1-0.3,0.2-0.5s0.2-0.3,0.3-0.4c0.2-0.2,0.4-0.3,0.6-0.3c0.2,0,0.4,0.1,0.6,0.2
		L20,39.6z M20.2,36c-0.8-0.2-1.7,0.6-1.9,1.8v0c-0.1,0.4-0.1,0.7,0,1l-1,1V30c0.9,2.9,3.3,5.2,6.3,5.8v1.1l-0.6-0.2l-1.2-1.2
		L21,36.2L20.2,36z M21.4,40l0.5-2.6l10.9,2.9c0.4,0.1,0.7,0.2,1.1,0.3c0.4,0.1,0.7,0.2,1.1,0.3c0.1,0,0.1,0.1,0.2,0.2
		c0.1,0.1,0.2,0.2,0.3,0.3c0.1,0.1,0.2,0.2,0.3,0.3c0.1,0.1,0.2,0.2,0.2,0.2l-0.3,1.3l-1.4,0.3c0,0-0.1,0-0.1,0c-0.1,0-0.1,0-0.2,0
		c-0.1,0-0.1,0-0.2-0.1s-0.1,0-0.1,0L21.4,40z M31.1,43.4h-4l0.8-0.8L31.1,43.4z M19.3,47c-0.3,0.1-0.6,0-0.9,0
		c-0.3-0.1-0.6-0.2-0.8-0.4c-0.1-0.1-0.2-0.3-0.3-0.4c-0.1-0.2-0.1-0.3-0.1-0.5c0-0.2,0-0.3,0.1-0.5c0.1-0.2,0.2-0.3,0.3-0.4
		c0.2-0.2,0.5-0.4,0.8-0.4c0.3-0.1,0.6-0.1,0.9,0L19.3,47z M38.2,44.3c0.6,0,1.1,0,1.7,0c0.6,0,1.1,0,1.7,0c0.1,0,0.2,0,0.4,0.1
		c0.2,0.1,0.4,0.1,0.6,0.2c0.2,0.1,0.4,0.1,0.6,0.2c0.2,0.1,0.3,0.1,0.4,0.2l0,1.3l-2,0.7c0,0-0.1,0-0.2,0c-0.1,0-0.2,0-0.3,0
		c-0.1,0-0.2,0-0.3,0s-0.2,0-0.2,0H21.9v-2.6L38.2,44.3z M45,29.8c0.3,0,0.5,0.1,0.7,0.2c0.2,0.1,0.4,0.3,0.5,0.6
		c0.1,0.2,0.1,0.3,0.1,0.5c0,0.3-0.1,0.5-0.2,0.7c-0.1,0.2-0.3,0.4-0.6,0.5c-0.1,0-0.2,0.1-0.2,0.1s-0.2,0-0.3,0.1
		c-0.1,0-0.2,0.1-0.2,0.1c-0.1,0-0.1,0.1-0.2,0.1c-0.1,0.1-0.2,0.2-0.2,0.3c0,0.1-0.1,0.2-0.1,0.3s0,0.2,0.1,0.3
		c0,0.1,0.1,0.2,0.2,0.3l2.2,2.2l-1.1,1.1c-0.1,0.1-0.2,0.1-0.3,0.2c-0.1,0-0.2,0.1-0.3,0.1c0,0,0,0,0,0c-0.1,0-0.2,0-0.3-0.1
		c-0.1,0-0.2-0.1-0.3-0.2c0,0-0.1-0.1-0.1-0.2c0,0,0,0,0-0.1c0-0.1-0.1-0.2-0.1-0.2s0-0.2-0.1-0.3c0-0.1,0-0.2-0.1-0.2
		c-0.1-0.2-0.3-0.4-0.5-0.6c-0.2-0.1-0.5-0.2-0.7-0.2c-0.2,0-0.4,0-0.5,0.1c-0.2,0.1-0.3,0.2-0.4,0.3s-0.2,0.3-0.3,0.4
		c-0.1,0.2-0.1,0.3-0.1,0.5c0,0.3,0.1,0.5,0.2,0.7c0.1,0.2,0.3,0.4,0.6,0.5c0.1,0,0.2,0.1,0.2,0.1c0.1,0,0.2,0,0.3,0.1
		c0.1,0,0.2,0.1,0.2,0.1c0.1,0,0.1,0.1,0.2,0.1c0.1,0.1,0.2,0.2,0.2,0.3c0,0.1,0.1,0.2,0.1,0.3c0,0.2-0.1,0.5-0.3,0.6l-1.1,1.1
		l-0.4-0.4l-1.8-1.8c-0.2-0.2-0.4-0.3-0.6-0.3c-0.1,0-0.2,0-0.3,0.1c-0.1,0-0.2,0.1-0.3,0.2c-0.1,0.1-0.1,0.1-0.1,0.2
		c0,0.1-0.1,0.2-0.1,0.2c0,0.1,0,0.2-0.1,0.3c0,0.1,0,0.2-0.1,0.2c-0.1,0.2-0.3,0.4-0.5,0.6c-0.2,0.1-0.5,0.2-0.7,0.2
		c-0.2,0-0.4,0-0.5-0.1c-0.1,0-0.1-0.1-0.2-0.1c-0.1,0-0.2-0.1-0.2-0.1c-0.1-0.1-0.2-0.3-0.3-0.4c-0.1-0.2-0.1-0.3-0.1-0.5
		c0-0.3,0.1-0.5,0.2-0.7c0.1-0.2,0.3-0.4,0.6-0.5c0.1,0,0.2-0.1,0.2-0.1c0.1,0,0.2,0,0.3-0.1s0.2-0.1,0.2-0.1c0.1,0,0.1-0.1,0.2-0.1
		c0,0,0,0,0,0c0.2-0.2,0.3-0.4,0.3-0.6c0-0.1,0-0.2-0.1-0.3c0-0.1-0.1-0.2-0.2-0.3l0,0l-1.5-1.5l-0.7-0.7l1.1-1.1
		c0.1-0.1,0.2-0.2,0.3-0.2c0.1,0,0.2-0.1,0.3-0.1s0.2,0,0.3,0.1s0.2,0.1,0.3,0.2c0.1,0.1,0.1,0.1,0.1,0.2c0,0.1,0.1,0.2,0.1,0.3
		s0,0.2,0.1,0.3c0,0.1,0.1,0.2,0.1,0.3c0,0.1,0.1,0.2,0.2,0.3c0.1,0.1,0.2,0.2,0.3,0.3c0.1,0.1,0.2,0.1,0.3,0.1s0.2,0,0.3,0
		c0.2,0,0.3,0,0.5-0.1c0,0,0.1,0,0.1,0c0,0,0.1,0,0.1,0c0.2-0.1,0.4-0.3,0.5-0.5c0.1-0.2,0.2-0.4,0.2-0.6c0-0.3-0.1-0.5-0.2-0.7
		c-0.1-0.2-0.3-0.4-0.6-0.5c-0.1,0-0.2-0.1-0.2-0.1c-0.1,0-0.2,0-0.3-0.1s-0.2-0.1-0.2-0.1c-0.1,0-0.1-0.1-0.2-0.1
		c-0.1-0.1-0.2-0.2-0.2-0.3c0-0.1-0.1-0.2-0.1-0.3s0-0.2,0.1-0.3c0-0.1,0.1-0.2,0.2-0.3l1.1-1.1l0.7,0.7l1.5,1.5
		c0.1,0.1,0.2,0.2,0.3,0.2c0.1,0,0.2,0.1,0.3,0.1s0.2,0,0.3-0.1c0.1,0,0.2-0.1,0.3-0.2c0.1-0.1,0.1-0.1,0.1-0.2
		c0-0.1,0.1-0.2,0.1-0.2c0-0.1,0-0.2,0.1-0.3c0-0.1,0-0.2,0.1-0.2c0.1-0.2,0.3-0.4,0.5-0.6c0,0,0,0,0,0C44.4,29.8,44.7,29.8,45,29.8
		C44.9,29.8,45,29.8,45,29.8z"/>
	<path d="M18.7,28.9c0.5,2.6,2.6,4.7,5.3,5.3c4.7,0.9,8.8-3.2,7.9-7.9c-0.5-2.6-2.6-4.7-5.3-5.3C21.8,20.1,17.8,24.2,18.7,28.9z
		 M19.2,27.1c0.1-1.3,0.6-2.4,1.4-3.3l1.2,0.4L21.4,23c0.9-0.7,2-1.2,3.3-1.3l0.6,1.1l0.6-1.1c1.3,0.1,2.4,0.6,3.3,1.4l-0.4,1.2
		l1.1-0.4c0.8,0.9,1.2,2,1.4,3.3l-1.2,0.6l1.2,0.6c-0.1,1.2-0.6,2.4-1.4,3.3l-1.1-0.4l0.4,1.1c-0.9,0.8-2.1,1.3-3.3,1.4l-0.6-1.1
		l-0.6,1.1c-1.2-0.1-2.4-0.6-3.3-1.3l0.4-1.2l-1.2,0.4c-0.8-0.9-1.3-2.1-1.4-3.3l1.1-0.5L19.2,27.1z"/>
</g>
</svg>
