<svg xmlns="http://www.w3.org/2000/svg" viewBox="0 0 64 64" xmlns:v="https://vecta.io/nano"><g fill="#fff"><path d="M28.3 23.2c.2.2.4.3.7.3s.5 0 .7-.1.4-.2.6-.4.3-.4.4-.6.1-.5.1-.7a1.08 1.08 0 0 0-.3-.7c-.2-.2-.4-.3-.7-.3s-.5 0-.7.1-.4.2-.6.4-.3.4-.4.6-.1.5-.1.7c.1.3.2.5.3.7zM58 0H6a6.02 6.02 0 0 0-6 6v52a6.02 6.02 0 0 0 6 6h52a6.02 6.02 0 0 0 6-6V6a6.02 6.02 0 0 0-6-6zm-7.4 21.7c-.1.3-.3.5-.5.7l-5 5v17.9l3.6 3.6c.2.2.3.4.3.6 0 .3-.1.5-.3.7s-.4.3-.6.3h-34c-.2 0-.5-.1-.6-.3s-.3-.4-.3-.7c0-.2.1-.4.3-.6l3.6-3.6v-14c-.3-.3-.6-.5-.9-.8a9.51 9.51 0 0 1-1.5-2c-.4-.7-.8-1.5-1-2.4-.2-.8-.4-1.7-.4-2.6s.1-1.8.4-2.6c.2-.8.6-1.6 1-2.4a9.51 9.51 0 0 1 1.5-2 9.51 9.51 0 0 1 2-1.5c.7-.4 1.5-.8 2.4-1 .8-.2 1.7-.4 2.6-.4s1.8.1 2.6.4c.8.2 1.6.6 2.4 1a9.51 9.51 0 0 1 2 1.5 9.51 9.51 0 0 1 1.5 2c.4.7.8 1.5 1 2.4.2.8.4 1.7.4 2.6 0 .4-.1.8-.2 1.1 0 .1-.1.2-.1.2h8.8l5.5-5.5a3.04 3.04 0 0 1 .7-.5c.3-.1.6-.2.9-.2s.6.1.9.2.5.3.7.5.4.4.5.7.2.6.2.9c-.2.3-.2.6-.4.8zm-31.2-2.3c.2.2.3.3.6.4a1.7 1.7 0 0 0 .7.1c.2 0 .5 0 .7-.1s.4-.2.6-.4.3-.3.4-.6a1.7 1.7 0 0 0 .1-.7c0-.2 0-.5-.1-.7s-.2-.4-.4-.6-.3-.3-.6-.4c-.2-.1-.4-.1-.7-.1-.2 0-.5 0-.7.1s-.4.2-.6.4-.3.3-.4.6c-.1.2-.1.4-.1.7 0 .2 0 .5.1.7.1.3.2.5.4.6zm-.2 11c.2.1.4.1.7.1s.5 0 .7-.1.4-.2.6-.4.3-.3.4-.6c.1-.2.1-.4.1-.7s0-.5-.1-.7-.2-.4-.4-.6-.3-.3-.6-.4c-.2-.1-.4-.1-.7-.1s-.5 0-.7.1-.4.2-.6.4-.3.3-.4.5v1.4c.1.2.2.4.4.5a1.13 1.13 0 0 0 .6.6zm10.4-4.2c-.1 0-.1-.1-.2-.1H26v.2 4.2c0 .4-.1.8-.2 1.1s-.3.6-.6.9-.6.5-.9.6-.7.2-1.1.2c-.9 0-1.8-.1-2.6-.4-.8-.2-1.5-.5-2.2-.9v12H44V28.7l-4.5 4.5-3.2-3.2 3.9-4h-9c-.3.1-.7.2-1 .2-.2.1-.4.1-.6 0zm5.3 5.4c.2-.3.5-.7.8-.9l3.2 3.2c-.3.3-.6.6-.9.8s-.7.4-1.1.5l-2.4-2.4c0-.5.1-.9.4-1.2zm-4.4 4c.2-.4.4-.7.7-1s.6-.5 1-.7.8-.2 1.2-.2h.8l1.6 1.6v.8c0 .5-.1 1.1-.3 1.5-.2.5-.5.9-.8 1.3-.4.4-.8.6-1.3.8s-1 .3-1.5.3c-.6 0-1.2-.1-1.7-.4a7.55 7.55 0 0 1-1.4-1.1c.2 0 .4 0 .6-.1s.4-.2.5-.3.3-.3.3-.5c.1-.2.1-.4.1-.6 0-.6 0-1 .2-1.4zM25 20.1c.2.2.3.3.6.4.2.1.4.1.7.1s.5 0 .7-.1.4-.2.6-.4.3-.3.4-.6c.1-.2.1-.4.1-.7 0-.2 0-.5-.1-.7s-.2-.4-.4-.6-.3-.3-.6-.4-.4-.1-.7-.1-.5 0-.7.1-.4.2-.6.4-.3.3-.4.6c-.1.2-.1.4-.1.7 0 .2 0 .5.1.7l.4.6z"/><path d="M18.3 32.1v-2.6c-.1-.2-.1-.4-.1-.7 0-.2 0-.5.1-.7v-2H26c0-.1 0-.2.1-.4a1.38 1.38 0 0 1 .3-.4c.1-.1.3-.2.4-.3s.4-.1.6-.1.4 0 .6.1a1.38 1.38 0 0 1 .4.3c.1.1.3.2.4.3a1.38 1.38 0 0 0 .4.3c.1.1.2.1.3.2h1.8.1c.3-.1.6-.3.9-.6.2-.2.3-.4.5-.7H18.3c-.3 0-.6.1-.9.4s-.4.6-.4.9v5.2c.3.3.7.5 1.1.7.1.1.1.1.2.1zm.6 13.2c-.1.1-.2.2-.5.4s-.5.5-.7.7l-.7.7c-.2.2-.3.4-.3.4 0 .1 0 .1.1.2 0 .1.1.1.2.1h9.7l-.7 1.4h10.2l-.6-1.3h9.7c.2 0 .2-.1.2-.2s0-.1-.1-.2l-2.1-2.2H18.9z"/><path d="M17.8 24.8c.2-.1.4-.2.6-.4s.3-.3.4-.6a1.7 1.7 0 0 0 .1-.7c0-.2 0-.5-.1-.7s-.2-.4-.4-.6-.3-.3-.6-.4c-.2-.1-.4-.1-.7-.1-.2 0-.5 0-.7.1s-.4.2-.6.4-.3.3-.4.6c-.1.2-.1.4-.1.7 0 .2 0 .5.1.7s.2.4.4.6.3.3.6.4c.2.1.4.1.7.1.2 0 .5-.1.7-.1z"/></g><path d="M29.8 37.9c-.1.1-.3.3-.5.3-.2.1-.4.1-.6.1.4.5.9.9 1.4 1.1.5.3 1.1.4 1.7.4.5 0 1.1-.1 1.5-.3.5-.2.9-.5 1.3-.8.4-.4.6-.8.8-1.3s.3-1 .3-1.5v-.8l-1.6-1.6h-.8a4.3 4.3 0 0 0-1.2.2c-.4.2-.7.4-1 .7s-.5.6-.7 1-.2.8-.2 1.2c0 .2 0 .4-.1.6 0 .4-.2.6-.3.7zM50.6 20c-.1-.3-.3-.5-.5-.7s-.4-.4-.7-.5-.6-.2-.9-.2-.6.1-.9.2-.5.3-.7.5l-5.5 5.5h-8.8a3.04 3.04 0 0 1-.5.7c-.3.3-.6.5-.9.6h-.1 9l-3.9 4 3.2 3.2 4.5-4.5V44H18.3V32.1c-.1 0-.1-.1-.2-.1-.4-.2-.7-.5-1.1-.7v14l-3.6 3.6c-.2.2-.3.4-.3.6 0 .3.1.5.3.7s.4.3.6.3h34c.2 0 .5-.1.6-.3s.3-.4.3-.7c0-.2-.1-.4-.3-.6L45 45.3V27.4l5-5a3.04 3.04 0 0 0 .5-.7c.1-.3.2-.6.2-.9.1-.2 0-.5-.1-.8zm-5.2 27.5s.1.1.1.2c0 .2-.1.2-.2.2h-9.7l.6 1.3H26l.6-1.3H17c-.1 0-.1 0-.2-.1 0-.1-.1-.1-.1-.2s.1-.2.3-.4.4-.5.7-.7l.7-.7c.2-.2.4-.4.5-.4h24.3l2.2 2.1zm-7.5-12.9c.3-.2.7-.5.9-.8l-3.2-3.2c-.3.3-.6.6-.8.9s-.4.7-.5 1.1l2.4 2.4c.5 0 .9-.2 1.2-.4zM29.2 26c-.1-.1-.3-.2-.4-.3a1.38 1.38 0 0 0-.4-.3c-.1-.1-.3-.2-.4-.3-.2-.1-.4-.1-.6-.1s-.4 0-.6.1a1.38 1.38 0 0 0-.4.3c-.1.1-.2.3-.3.4 0 .1-.1.2-.1.4h3.5c-.2-.1-.3-.2-.3-.2zm-10.9 2.1c-.1.2-.1.4-.1.7 0 .2 0 .5.1.7v-1.4z"/><path d="M23.1 33.4c.4 0 .8-.1 1.1-.2s.6-.3.9-.6.5-.6.6-.9.2-.7.2-1.1v-4.2-.2h-7.7v2c.1-.2.2-.4.4-.5.2-.2.3-.3.6-.4.2-.1.4-.1.7-.1s.5 0 .7.1.4.2.6.4.3.3.4.6c.1.2.1.4.1.7s0 .5-.1.7-.2.4-.4.6-.3.3-.6.4a1.7 1.7 0 0 1-.7.1c-.3 0-.5 0-.7-.1s-.4-.2-.6-.4-.3-.3-.4-.5v2.6c.7.4 1.4.7 2.2.9l2.7.1zm-5.7-8.2c.3-.3.6-.4.9-.4h14.4c0-.1.1-.2.1-.2.1-.3.2-.7.2-1.1 0-.9-.1-1.8-.4-2.6-.2-.8-.6-1.6-1-2.4a9.51 9.51 0 0 0-1.5-2 9.51 9.51 0 0 0-2-1.5c-.7-.4-1.5-.8-2.4-1-.8-.2-1.7-.4-2.6-.4s-1.8.1-2.6.4c-.8.2-1.6.6-2.4 1a9.51 9.51 0 0 0-2 1.5 9.51 9.51 0 0 0-1.5 2c-.4.7-.8 1.5-1 2.4-.2.8-.4 1.7-.4 2.6s.1 1.8.4 2.6c.2.8.6 1.6 1 2.4a9.51 9.51 0 0 0 1.5 2c.3.3.6.6.9.8v-5.2c0-.3.2-.6.4-.9zm10.8-3.4c.1-.2.2-.4.4-.6s.4-.3.6-.4.5-.1.7-.1a1.08 1.08 0 0 1 .7.3c.2.2.3.4.3.7s0 .5-.1.7-.2.4-.4.6-.4.3-.6.4-.5.1-.7.1c-.3 0-.5-.1-.7-.3s-.3-.4-.3-.7c0-.2 0-.5.1-.7zm-3.5-3.6c.1-.2.2-.4.4-.6s.3-.3.6-.4c.2-.1.4-.1.7-.1s.5 0 .7.1.4.2.6.4.3.3.4.6c.1.2.1.4.1.7 0 .2 0 .5-.1.7s-.2.4-.4.6-.3.3-.6.4a1.7 1.7 0 0 1-.7.1c-.3 0-.5 0-.7-.1s-.4-.2-.6-.4-.3-.3-.4-.6c-.1-.2-.1-.4-.1-.7-.1-.3 0-.5.1-.7zm-5.7-.7c.1-.2.2-.4.4-.6s.3-.3.6-.4c.2-.1.4-.1.7-.1.2 0 .5 0 .7.1s.4.2.6.4.3.3.4.6c.1.2.1.4.1.7 0 .2 0 .5-.1.7s-.2.4-.4.6-.3.3-.6.4c-.2.1-.4.1-.7.1-.2 0-.5 0-.7-.1s-.4-.2-.6-.4-.3-.3-.4-.6c-.1-.2-.1-.4-.1-.7s0-.5.1-.7zm-2.6 7.3c-.2-.1-.4-.2-.6-.4s-.3-.3-.4-.6-.1-.4-.1-.7c0-.2 0-.5.1-.7s.2-.4.4-.6.3-.3.6-.4.4-.1.7-.1c.2 0 .5 0 .7.1s.4.2.6.4.3.3.4.6c.1.2.1.4.1.7 0 .2 0 .5-.1.7s-.2.4-.4.6-.3.3-.6.4c-.2.1-.4.1-.7.1s-.5-.1-.7-.1zm13.2 1.4c.2.1.4.1.6.1.4 0 .7-.1 1-.2h-1.8c.1 0 .1.1.2.1z"/></svg>