<?xml version="1.0" encoding="utf-8"?>
<!-- Generator: Adobe Illustrator 25.2.0, SVG Export Plug-In . SVG Version: 6.00 Build 0)  -->
<!DOCTYPE svg PUBLIC "-//W3C//DTD SVG 1.1//EN" "http://www.w3.org/Graphics/SVG/1.1/DTD/svg11.dtd" [
	<!ENTITY ns_extend "http://ns.adobe.com/Extensibility/1.0/">
	<!ENTITY ns_ai "http://ns.adobe.com/AdobeIllustrator/10.0/">
	<!ENTITY ns_graphs "http://ns.adobe.com/Graphs/1.0/">
	<!ENTITY ns_vars "http://ns.adobe.com/Variables/1.0/">
	<!ENTITY ns_imrep "http://ns.adobe.com/ImageReplacement/1.0/">
	<!ENTITY ns_sfw "http://ns.adobe.com/SaveForWeb/1.0/">
	<!ENTITY ns_custom "http://ns.adobe.com/GenericCustomNamespace/1.0/">
	<!ENTITY ns_adobe_xpath "http://ns.adobe.com/XPath/1.0/">
]>
<svg version="1.1" id="Calque_1" xmlns:x="&ns_extend;" xmlns:i="&ns_ai;" xmlns:graph="&ns_graphs;"
	 xmlns="http://www.w3.org/2000/svg" xmlns:xlink="http://www.w3.org/1999/xlink" x="0px" y="0px" viewBox="0 0 64 64"
	 style="enable-background:new 0 0 64 64;" xml:space="preserve">
<style type="text/css">
	.st0{fill:#FFFFFF;}
</style>
<metadata>
	<sfw  xmlns="&ns_sfw;">
		<slices></slices>
		<sliceSourceBounds  bottomLeftOrigin="true" height="165" width="219.4" x="-101.6" y="24.5"></sliceSourceBounds>
	</sfw>
</metadata>
<path d="M-63.7-25.9l-3.8-3.9v-0.7c0,0,0.1,0,0.1-0.1c0.5-0.5,0.8-1.2,0.8-1.9V-50c0-0.7-0.3-1.4-0.8-1.9c-0.5-0.5-1.2-0.8-1.9-0.8
	h-11.8H-82v-4.7c0-0.9,0.3-1.7,1-2.4c0.7-0.7,1.4-1,2.4-1h15.2v-1.7h-15.2c-0.9,0-1.6,0.2-2.4,0.6c-0.7,0.4-1.3,0.9-1.8,1.6
	c-0.5-0.7-1.1-1.2-1.9-1.6c-0.7-0.4-1.5-0.6-2.4-0.6h-15v1.7h15c0.9,0,1.7,0.3,2.4,1c0.7,0.7,1,1.4,1,2.4v4.7h-0.7h-11.8
	c-0.7,0-1.4,0.3-1.9,0.8c-0.5,0.5-0.8,1.2-0.8,1.9v17.7c0,0.7,0.3,1.4,0.8,1.9c0,0,0.1,0,0.1,0.1v0.7l-3.8,3.9
	c-0.2,0.2-0.3,0.4-0.3,0.7c0,0.3,0.1,0.5,0.3,0.7c0.2,0.2,0.4,0.3,0.7,0.3h36.7c0.3,0,0.5-0.1,0.7-0.3c0.2-0.2,0.3-0.4,0.3-0.7
	C-63.4-25.5-63.5-25.7-63.7-25.9z M-77.6-37.9l1.3-1.3l3.4,3.4l-3.4,3.4l-1.3-1.3l2.1-2.1L-77.6-37.9z M-92.7-48.1
	c0-0.5,0.2-1,0.6-1.3c0.4-0.4,0.8-0.6,1.3-0.6h5.7l1.9,1.9h7.6c0.5,0,1,0.2,1.3,0.6c0.4,0.4,0.6,0.8,0.6,1.3v4.7h-1.9v-4.7H-84
	l-1.9-1.9h-4.9v11.3h4.7v1.9h-4.7c-0.5,0-1-0.2-1.3-0.6s-0.6-0.8-0.6-1.3V-48.1z M-79.5-33.7l-1.3,1.3l-3.4-3.4l3.4-3.4l1.3,1.3
	l-2.1,2.1L-79.5-33.7z M-67.5-27h-10.4l0.7,1.4h-11.1l0.7-1.4H-98c-0.1,0-0.1,0-0.2-0.1c-0.1-0.1-0.1-0.1-0.1-0.2
	c0-0.1,0.1-0.2,0.3-0.5c0.2-0.2,0.5-0.5,0.7-0.8c0.3-0.3,0.5-0.5,0.8-0.8c0.3-0.2,0.4-0.4,0.5-0.5h26.3l2.3,2.3
	c0.1,0.1,0.1,0.1,0.1,0.2C-67.3-27-67.3-27-67.5-27z"/>
<g>
	<path d="M12.6-97.1c0.7,0.7,1,1.4,1,2.4v0.7h1.7v-0.7c0-0.9,0.3-1.7,1-2.4c0.7-0.7,1.4-1,2.4-1h15.2v-1.7H18.7
		c-0.9,0-1.6,0.2-2.4,0.6c-0.7,0.4-1.3,0.9-1.8,1.6c-0.5-0.7-1.1-1.2-1.9-1.6c-0.7-0.4-1.5-0.6-2.4-0.6h-15v1.7h15
		C11.2-98.1,12-97.8,12.6-97.1z"/>
	<path d="M33.6-63.2L28.9-68H15.3v-2.6h12.6c0.7,0,1.4-0.3,1.9-0.8c0.5-0.5,0.8-1.2,0.8-1.9v-17.6c0-0.7-0.3-1.4-0.8-1.9
		c-0.5-0.5-1.2-0.8-1.9-0.8H1.1c-0.7,0-1.4,0.3-1.9,0.8c-0.5,0.5-0.8,1.2-0.8,1.9v17.6c0,0.7,0.3,1.4,0.8,1.9
		c0.5,0.5,1.2,0.8,1.9,0.8h12.5v2.6H0.2l-4.7,4.8c-0.2,0.2-0.3,0.4-0.3,0.7c0,0.3,0.1,0.5,0.3,0.7c0.2,0.2,0.4,0.3,0.7,0.3h36.7
		c0.3,0,0.5-0.1,0.7-0.3c0.2-0.2,0.3-0.4,0.3-0.7C33.9-62.8,33.8-63,33.6-63.2z M21.1-73.2l-1.3-1.3l2.1-2.1l-2.1-2.1l1.3-1.3
		l3.4,3.4L21.1-73.2z M11.2-77.6v1.9H6.5c-0.5,0-1-0.2-1.3-0.6S4.6-77,4.6-77.6v-11.3c0-0.5,0.2-1,0.6-1.3c0.4-0.4,0.8-0.6,1.3-0.6
		h5.7l1.9,1.9h7.6c0.5,0,1,0.2,1.3,0.6c0.4,0.4,0.6,0.8,0.6,1.3v4.7h-1.9V-87h-8.3l-1.9-1.9H6.5v11.3H11.2z M16.5-80l1.3,1.3
		l-2.1,2.1l2.1,2.1l-1.3,1.3l-3.4-3.4L16.5-80z M29.8-64.3H19.4l0.7,1.4H9l0.7-1.4H-0.7c-0.1,0-0.1,0-0.2-0.1C-1-64.4-1-64.5-1-64.6
		c0-0.1,0.1-0.2,0.3-0.5c0.2-0.2,0.5-0.5,0.7-0.8c0.3-0.3,0.5-0.5,0.8-0.8c0.3-0.2,0.4-0.4,0.5-0.5h26.3l2.3,2.3
		c0.1,0.1,0.1,0.1,0.1,0.2C30.1-64.4,30-64.3,29.8-64.3z"/>
</g>
<path class="st0" d="M10.7-189.2h-52c-3.3,0-6,2.7-6,6v52c0,3.3,2.7,6,6,6h52c3.3,0,6-2.7,6-6v-52C16.7-186.5,14-189.2,10.7-189.2z"
	/>
<path d="M111.7-45.3L107-50H93.5v-2.6h12.6c0.7,0,1.4-0.3,1.9-0.8c0.5-0.5,0.8-1.2,0.8-1.9v-17.6c0-0.7-0.3-1.4-0.8-1.9
	c-0.5-0.5-1.2-0.8-1.9-0.8H79.3c-0.7,0-1.4,0.3-1.9,0.8c-0.5,0.5-0.8,1.2-0.8,1.9v17.6c0,0.7,0.3,1.4,0.8,1.9
	c0.5,0.5,1.2,0.8,1.9,0.8h12.5v2.6H78.3l-4.7,4.8c-0.2,0.2-0.3,0.4-0.3,0.7c0,0.3,0.1,0.5,0.3,0.7c0.2,0.2,0.4,0.3,0.7,0.3H111
	c0.3,0,0.5-0.1,0.7-0.3c0.2-0.2,0.3-0.4,0.3-0.7C112-44.9,111.9-45.1,111.7-45.3z M99.2-55.3l-1.3-1.3l2.1-2.1l-2.1-2.1l1.3-1.3
	l3.4,3.4L99.2-55.3z M89.4-59.7v1.9h-4.7c-0.5,0-1-0.2-1.3-0.6s-0.6-0.8-0.6-1.3V-71c0-0.5,0.2-1,0.6-1.3c0.4-0.4,0.8-0.6,1.3-0.6
	h5.7l1.9,1.9h7.6c0.5,0,1,0.2,1.3,0.6c0.4,0.4,0.6,0.8,0.6,1.3v4.7h-1.9v-4.7h-8.3L89.5-71h-4.9v11.3H89.4z M94.6-62.1l1.3,1.3
	l-2.1,2.1l2.1,2.1l-1.3,1.3l-3.4-3.4L94.6-62.1z M107.9-46.4H97.5l0.7,1.4H87.1l0.7-1.4H77.4c-0.1,0-0.1,0-0.2-0.1
	c-0.1-0.1-0.1-0.1-0.1-0.2c0-0.1,0.1-0.2,0.3-0.5c0.2-0.2,0.5-0.5,0.7-0.8c0.3-0.3,0.5-0.5,0.8-0.8c0.3-0.2,0.4-0.4,0.5-0.5h26.3
	l2.3,2.3c0.1,0.1,0.1,0.1,0.1,0.2C108.2-46.5,108.1-46.4,107.9-46.4z"/>
<g>
	<path d="M96-185.3c0.7,0.7,1,1.4,1,2.4v0.7h1.7v-0.7c0-0.9,0.3-1.7,1-2.4c0.7-0.7,1.4-1,2.4-1h15.2v-1.7h-15.2
		c-0.9,0-1.6,0.2-2.4,0.6c-0.7,0.4-1.3,0.9-1.8,1.6c-0.5-0.7-1.1-1.2-1.9-1.6c-0.7-0.4-1.5-0.6-2.4-0.6h-15v1.7h15
		C94.6-186.3,95.4-186,96-185.3z"/>
	<path d="M117-151.4l-4.7-4.8H98.7v-2.6h12.6c0.7,0,1.4-0.3,1.9-0.8c0.5-0.5,0.8-1.2,0.8-1.9V-179c0-0.7-0.3-1.4-0.8-1.9
		c-0.5-0.5-1.2-0.8-1.9-0.8H84.5c-0.7,0-1.4,0.3-1.9,0.8c-0.5,0.5-0.8,1.2-0.8,1.9v17.6c0,0.7,0.3,1.4,0.8,1.9
		c0.5,0.5,1.2,0.8,1.9,0.8H97v2.6H83.6l-4.7,4.8c-0.2,0.2-0.3,0.4-0.3,0.7c0,0.3,0.1,0.5,0.3,0.7c0.2,0.2,0.4,0.3,0.7,0.3h36.7
		c0.3,0,0.5-0.1,0.7-0.3c0.2-0.2,0.3-0.4,0.3-0.7C117.3-151,117.2-151.2,117-151.4z M104.4-161.4l-1.3-1.3l2.1-2.1l-2.1-2.1l1.3-1.3
		l3.4,3.4L104.4-161.4z M94.6-165.7v1.9h-4.7c-0.5,0-1-0.2-1.3-0.6s-0.6-0.8-0.6-1.3v-11.3c0-0.5,0.2-1,0.6-1.3
		c0.4-0.4,0.8-0.6,1.3-0.6h5.7l1.9,1.9h7.6c0.5,0,1,0.2,1.3,0.6c0.4,0.4,0.6,0.8,0.6,1.3v4.7H105v-4.7h-8.3l-1.9-1.9h-4.9v11.3H94.6
		z M99.9-168.2l1.3,1.3l-2.1,2.1l2.1,2.1l-1.3,1.3l-3.4-3.4L99.9-168.2z M113.2-152.5h-10.4l0.7,1.4H92.4l0.7-1.4H82.7
		c-0.1,0-0.1,0-0.2-0.1c-0.1-0.1-0.1-0.1-0.1-0.2c0-0.1,0.1-0.2,0.3-0.5c0.2-0.2,0.5-0.5,0.7-0.8c0.3-0.3,0.5-0.5,0.8-0.8
		c0.3-0.2,0.4-0.4,0.5-0.5h26.3l2.3,2.3c0.1,0.1,0.1,0.1,0.1,0.2C113.4-152.5,113.4-152.5,113.2-152.5z"/>
</g>
<g>
	<path d="M73.3-80.2v14.9h1.7v-14.9h35.2v14.9h1.7v-14.9c0-1-0.8-1.7-1.7-1.7H75.1C74.1-81.9,73.3-81.2,73.3-80.2z"/>
	<polygon points="74.6,-81.8 74.6,-80.9 94.5,-80.9 99.1,-76.4 110.7,-76.4 110.7,-81.8 	"/>
</g>
</svg>
