<svg xmlns="http://www.w3.org/2000/svg" viewBox="0 0 64 64" xmlns:v="https://vecta.io/nano"><path d="M48.6 33.7c1.6-2.2 2.6-4.9 2.6-7.8 0-7.3-5.8-13.1-13.1-13.1S25 18.6 25 25.9c0 1 .1 2 .4 2.9-1 .4-2 .9-2.9 1.6-1.8 1.4-2.9 3.3-3.4 5.6-1.8.3-3.3 1.2-4.5 2.6s-1.7 3.1-1.7 4.9c0 2.1.7 3.9 2.2 5.4s3.3 2.2 5.4 2.2H25v-2.4h-4.5c-.4 0-.7 0-1-.1-1-.2-1.9-.7-2.7-1.5-1-1-1.5-2.3-1.5-3.7 0-1.5.5-2.7 1.5-3.7.8-.8 1.6-1.2 2.6-1.4.3-.1.7-.1 1-.1h.6c0-2.1.7-3.9 2.2-5.3l.6-.6c.1 0 .1-.1.2-.1.2-.1.3-.3.5-.4.1 0 .1-.1.2-.1l.6-.3s.1 0 .1-.1c.9-.4 2-.7 3.1-.7 1.3 0 2.5.3 3.5.9.6.3 1.2.8 1.7 1.4.3.3.5.5.7.8 0 .1.1.1.1.2.2.3.4.6.5.9.2.3.3.7.4 1v.1c.1.4.2.7.3 1.1a.9.9 0 0 0 .1.5v3.7c0 2.1 1.1 5.1 3.4 7.4-.3.1-.7.2-1.1.2h0-8.4V45v-4.8l1 .9 1.4 1.3h0l.4.4 1.7-1.7-3.5-3.5h0l-1.9-1.9h0l-.3-.3-5.6 5.6.8.8.8.8 2.7-2.7v8.6c0 .3.1.6.2.9s.3.5.5.8a1.38 1.38 0 0 0 .4.3c.4.3.8.4 1.3.4H38c1.2 0 2.3-.3 3.2-.9.6.4 1.2.7 1.9.9l.4.1.4-.1c5.2-1.7 7.4-6.8 7.4-10v-6.4l-2.7-.8zM31 24l4.3 3.4-.9 2.9c-1.7-1.3-3.6-2-5.9-2-.5 0-.9 0-1.4.1-.2-.8-.3-1.6-.3-2.5 0-3 1.1-5.6 3.4-7.9 2.1-2.3 4.9-3.4 7.9-3.4s5.6 1.1 7.9 3.4c2.3 2.1 3.4 4.7 3.4 7.9 0 2.7-.9 5-2.6 7.1l-3.2-1.3-1.1.4-1.5-4.7 4.3-3.4h-5.4l-1.7-5.3-1.8 5.3H31zm4.6 7.4l2.7-2 3.6 2.9-4.6 1.8c-.4-.9-.9-1.9-1.7-2.7zm14.7 9.8c0 1.2-.4 2.8-1.2 4.2-.2.4-.5.8-.8 1.2-.6.8-1.3 1.5-2.2 2.1-.7.5-1.4.8-2.3 1.1l-.3.2-.3-.1c-1.2-.4-2.2-1-3.1-1.8h0c-.9-.8-1.6-1.6-2.1-2.6-.3-.6-.6-1.2-.8-1.8v-.1c-.1-.3-.2-.6-.2-.8-.1-.2-.1-.5-.1-.7v-.2-.7-5.6l6.8-2.7 4.4 1.7h0l2.4 1v5.6zm-6.8-6c-1.8 0-3.2 1.4-3.2 3.2 0 1.3.8 2.5 2 3h.1v4.3.9l.6.6.6.6.4-.4.7-.7-.9-.9.9-.9-.9-.9.9-.9v-1.7a3.17 3.17 0 0 0 2-3c0-1.7-1.4-3.2-3.2-3.2zm0 4.5c-.8 0-1.4-.6-1.4-1.4s.6-1.4 1.4-1.4 1.4.6 1.4 1.4-.6 1.4-1.4 1.4z"/><path d="M42 32.3l-3.6-2.9-2.7 2c.8.8 1.4 1.7 1.8 2.7l4.5-1.8zm1.5 4.7c-.8 0-1.4.6-1.4 1.4s.6 1.4 1.4 1.4 1.4-.6 1.4-1.4-.6-1.4-1.4-1.4zm-5.4-18.3l1.7 5.3h5.4l-4.3 3.4 1.5 4.7 1.1-.4 3.2 1.3c1.8-2.1 2.6-4.4 2.6-7.1 0-3.2-1.1-5.8-3.4-7.9-2.3-2.3-4.9-3.4-7.9-3.4s-5.8 1.1-7.9 3.4c-2.3 2.3-3.4 4.9-3.4 7.9 0 .9.1 1.7.3 2.5.5-.1.9-.1 1.4-.1 2.3 0 4.2.7 5.9 2l.9-2.9L31 24h5.4l1.7-5.3zm5.4 14.2l-6.8 2.7v5.6.7.2c0 .2.1.5.1.7.1.3.1.6.2.8v.1c.2.6.5 1.2.8 1.8a10.01 10.01 0 0 0 2.1 2.6c.9.8 1.9 1.4 3.1 1.8l.3.1.3-.1c.8-.3 1.6-.7 2.3-1.1.9-.6 1.6-1.3 2.2-2.1.3-.4.6-.8.8-1.2.8-1.5 1.2-3 1.2-4.2v-5.6l-2.4-1-4.2-1.8zm1.2 8.5v1.7l-.9.9.9.9-.9.9.9.9-.7.6-.4.4-.6-.6-.6-.6v-.9-4.3h-.1a3.17 3.17 0 0 1-2-3c0-1.8 1.4-3.2 3.2-3.2s3.2 1.4 3.2 3.2c0 1.5-.8 2.6-2 3.1zM58 0H6a6.02 6.02 0 0 0-6 6v52a6.02 6.02 0 0 0 6 6h52a6.02 6.02 0 0 0 6-6V6a6.02 6.02 0 0 0-6-6zm-6.7 41.2c0 3.2-2.2 8.2-7.4 10l-.4.1-.4-.1c-.7-.2-1.3-.5-1.9-.9-1 .6-2 .9-3.2.9h-8.4c-.5 0-.9-.1-1.3-.4-.1-.1-.3-.2-.4-.3-.2-.2-.4-.5-.5-.8s-.2-.6-.2-.9v-8.6l-2.7 2.7-.8-.9-.8-.8 5.6-5.6.3.3h0l1.9 1.9h0l3.5 3.5-1.7 1.7-.5-.6h0l-1.4-1.3-1-.9V45v3.8H38h0c.4 0 .7-.1 1.1-.2-2.3-2.3-3.4-5.3-3.4-7.4v-3.7c0-.2 0-.3-.1-.5-.1-.4-.1-.7-.3-1.1v-.1c-.1-.3-.2-.7-.4-1s-.3-.6-.5-.9c0-.1-.1-.1-.1-.2-.2-.3-.4-.6-.7-.8-.5-.6-1.1-1-1.7-1.4-1-.6-2.2-.9-3.5-.9-1.1 0-2.2.2-3.1.7 0 0-.1 0-.1.1l-.6.3c-.1 0-.1.1-.2.1-.2.1-.4.2-.5.4-.1 0-.1.1-.2.1l-.6.6c-1.4 1.5-2.2 3.3-2.2 5.3h-.7c-.4 0-.7 0-1 .1a5.1 5.1 0 0 0-2.6 1.4c-1 1-1.5 2.3-1.5 3.7s.5 2.7 1.5 3.7c.8.8 1.7 1.3 2.7 1.5.3.1.7.1 1 .1h4.5v2.4h-4.5c-2.1 0-3.9-.7-5.4-2.2s-2.2-3.3-2.2-5.4c0-1.9.6-3.5 1.7-4.9 1.2-1.4 2.7-2.3 4.5-2.6.5-2.3 1.7-4.1 3.4-5.6.9-.7 1.9-1.3 2.9-1.6-.2-.9-.4-1.9-.4-2.9 0-7.3 5.8-13.1 13.1-13.1S51 18.6 51 25.9c0 2.9-1 5.6-2.6 7.8l2.7 1.1v6.4z" fill="#fff"/></svg>