<svg xmlns="http://www.w3.org/2000/svg" viewBox="0 0 64 64" xmlns:v="https://vecta.io/nano"><path d="M38.3 19l1.9 6h6.2l-4.9 3.9 1.9 6.2-4.9-3.9-4.2 3.1c.9 1.5 1.4 3.1 1.4 5v.5c.5 0 1 .1 1.4.2h1c3.7 0 6.7-1.3 9-3.9 2.6-2.6 3.9-5.6 3.9-9 0-3.7-1.3-6.7-3.9-9-2.6-2.6-5.6-3.9-9-3.9a12.5 12.5 0 0 0-7 2.1v4.5c0 1.5-.2 2.9-.7 4.2h5.9l2-6z"/><path d="M27.4 30.1c2.2.2 4.1 1 5.7 2.7.2.2.4.4.6.7l1.4-4.6-4.7-3.7c-.4 1.3-1.1 2.5-2 3.7-.3.5-.6.8-1 1.2zM24.2 49v-8l-2.5 2.5-1.5-1.5 5.2-5.2 5.2 5.2-1.6 1.6-2.6-2.6v7.5a.47.47 0 0 0 .5.5H34c1 0 2-.4 2.7-1.1.3-.3.6-.7.7-1.1.1-.2.1-.4.2-.6 0-.2.1-.4.1-.7V45c0-.1 0-.2-.1-.3-.1-.6-.4-1.2-.9-1.6-.4-.4-.9-.7-1.4-.8h0c-.2-.1-.3-.1-.5-.1s-.4-.1-.6-.1H34h-1.8v-.4-2.3c0-1.9-.7-3.5-2-4.9s-2.9-2.1-4.8-2.1H25c-.7 0-1.5.2-2.1.4-.9.3-1.7.9-2.4 1.6-1.3 1.4-2 3-2 4.9h-.6a4.76 4.76 0 0 0-3.4 1.4c-.9.9-1.4 2-1.4 3.3s.5 2.6 1.4 3.5c.9 1 2.1 1.4 3.4 1.4H22h0a2.22 2.22 0 0 0 2.2 2.2h2.2c-.6 0-1.1-.2-1.5-.7a1.75 1.75 0 0 1-.7-1.4zM41 41.9c-.3.1-.6.1-.9.1.7.9 1.1 2 1.1 3.2l5.3 1.3v-6.7c-1.3.6-2.6 1.3-4.1 1.7-.4.1-.7.2-1.1.2-.1.2-.2.2-.3.2z"/><path d="M30.1 25l.3.2c0-.1 0-.1.1-.2h-.4zm3 10.1l1.1-.8-.6-.9-.5 1.7zm-3.7-16.6v-2.9l-7.3-2.8-7.3 2.8v5.5c0 2.4.7 4.6 2.1 6.5 1.4 2 3.1 3.3 5.2 3.9.6-.2 1.2-.5 1.8-.8.7-.4 1.3-.8 1.9-1.4.5-.5 1.1-1.1 1.5-1.8 1.4-2 2.1-4.1 2.1-6.5v-2.5h0zm-3.3 2.1L21.7 25c-.4.4-1 .4-1.3 0l-2.2-2.2c-.4-.4-.4-1 0-1.3h0c.4-.4 1-.4 1.3 0l.9.9c.4.4 1 .4 1.3 0l3.1-3.1c.4-.4 1-.4 1.3 0a.85.85 0 0 1 0 1.3z"/><g fill="#fff"><path d="M20.4 25c.4.4 1 .4 1.3 0l4.4-4.4c.4-.4.4-1 0-1.3-.4-.4-1-.4-1.3 0l-3.1 3.1c-.4.4-1 .4-1.3 0l-.9-.9c-.4-.4-1-.4-1.3 0h0c-.4.4-.4 1 0 1.3l2.2 2.2zm23.1 10.1l-1.9-6.2 4.9-3.9h-6.2l-1.9-6-1.9 6h-5.9c0 .1 0 .1-.1.2l4.7 3.7-1.4 4.6.6.9 4.2-3.1 4.9 3.8z"/><path d="M58 0H6a6.02 6.02 0 0 0-6 6v52a6.02 6.02 0 0 0 6 6h52a6.02 6.02 0 0 0 6-6V6a6.02 6.02 0 0 0-6-6zM14.8 15.6l7.3-2.8 7.3 2.8v2.9h0v2.6c0 2.4-.7 4.6-2.1 6.5-.5.7-1 1.2-1.5 1.8-.6.6-1.2 1-1.9 1.4l-1.8.8c-2.1-.7-3.9-2-5.2-3.9-1.4-2-2.1-4.1-2.1-6.5v-5.6zm22.8 30.6c0 .2-.1.4-.2.6-.2.4-.4.8-.7 1.1C36 48.6 35 49 34 49h-7.1a.47.47 0 0 1-.5-.5V41l2.5 2.5 1.6-1.6-5.2-5.2-5.1 5.3 1.6 1.6 2.5-2.5V49c0 .6.2 1.1.7 1.5.4.4 1 .7 1.5.7h-2.2a2.22 2.22 0 0 1-2.2-2.2h0-4.2a4.76 4.76 0 0 1-3.4-1.4c-1-1-1.5-2.3-1.5-3.6s.5-2.4 1.4-3.3a4.76 4.76 0 0 1 3.4-1.4h.6c0-1.9.7-3.6 2-4.9.7-.7 1.5-1.3 2.4-1.6.7-.3 1.4-.4 2.1-.4h.4c1.9 0 3.5.7 4.8 2.1s2 3 2 4.9v2.3.3h1.8.2c.2 0 .4 0 .6.1.2 0 .3.1.5.1h0c.5.2 1 .4 1.4.8.5.5.8 1 .9 1.6 0 .1 0 .2.1.3v.5c.1.3.1.6 0 .8zm8.9.3l-5.3-1.3c0-1.2-.4-2.3-1.1-3.2.3 0 .6-.1.9-.1.1 0 .3-.1.4-.1.4-.1.7-.1 1.1-.2 1.5-.4 2.8-1.1 4.1-1.7v6.6zm.6-10.3c-2.4 2.6-5.4 3.9-9 3.9h-1c-.5-.1-.9-.2-1.4-.2v-.5c0-1.9-.5-3.5-1.4-5l-1.1.8.5-1.7c-.2-.2-.4-.4-.6-.7-1.6-1.6-3.4-2.5-5.7-2.7.3-.4.7-.8 1-1.2.9-1.2 1.5-2.4 2-3.7l-.3-.2h.3c.4-1.3.7-2.7.7-4.2v-4.5c2-1.4 4.4-2.1 7-2.1 3.4 0 6.4 1.3 9 3.9 2.6 2.4 3.9 5.4 3.9 9 0 3.5-1.3 6.5-3.9 9.1z"/></g></svg>