<svg xmlns="http://www.w3.org/2000/svg" viewBox="0 0 64 64" xmlns:v="https://vecta.io/nano"><path d="M42 46c-2.5 1.9-5.6 3.1-9 3.2 1.5-.7 2.8-1.6 4.1-2.6a10.9 10.9 0 0 1-2.6.3h-.2l-1.6.9v-1l-1.4-.3v1.2c-2.9-1.4-5.3-3.6-7-6.2h.1c-.3-.4-.5-.9-.7-1.3 0 0-.1 0-.1.1-1.2-2.3-1.9-4.8-2.1-7.6h1.2l.3-1.3h-1.4c.1-2.7.8-5.3 2.1-7.6 1.2.6 2.4 1.1 3.7 1.4.6-.4 1.2-.8 1.9-1.1-1.7-.3-3.4-.8-4.9-1.6 1.7-2.6 4.2-4.8 7-6.2v7l1.4-.3v-6.7c2.9 1.4 5.3 3.6 7 6.2-.6.3-1.3.6-1.9.8.7.2 1.4.5 2 .8.2-.1.5-.2.7-.3.2.3.3.6.4.9.9.6 1.7 1.3 2.4 2.1-.4-1.3-.9-2.5-1.5-3.7 1.2-.7 2.2-1.5 3.2-2.4 2.4 2.9 4 6.6 4.2 10.7h-3.4l.3 1.4h3a16.67 16.67 0 0 1-3.5 9.8l1.5 1.6c2.6-3.3 4.2-7.5 4.3-12.1-.1-10.9-8.7-19.5-19.5-19.5S12.6 21.2 12.5 32c.1 10.8 8.7 19.4 19.5 19.4 4.4 0 8.4-1.4 11.6-3.8L42 46zm2-26.5c-.9.8-1.9 1.6-2.9 2.2-1.9-3-4.7-5.4-8-7 4.2.3 8 2 10.9 4.8zm-13-4.8c-3.3 1.5-6 4-8 7-1.1-.6-2-1.4-2.9-2.2 2.8-2.8 6.6-4.5 10.9-4.8zm-12 5.9c1 .9 2.1 1.7 3.2 2.4-1.3 2.5-2.1 5.3-2.2 8.3h-5.3c.2-4.1 1.8-7.8 4.3-10.7zm-4.3 12.1h5.2c.1 3 .9 5.8 2.2 8.3-1.2.7-2.2 1.5-3.2 2.4-2.4-2.9-4-6.6-4.2-10.7zM20 44.5c.9-.8 1.9-1.6 2.9-2.2 1.9 3 4.7 5.4 8 7-4.2-.3-8-2.1-10.9-4.8zm30 2.8l-5.2-5.4c-.2-.2-.4-.2-.9-.2H43c1.3-1.8 2.3-4.3 2.3-6.9.2-6.2-4.8-11.2-11-11.2s-11.2 5-11.2 11.2S28.1 46 34.3 46c2.5 0 5-.9 6.9-2.3v.9c0 .4.2.7.4.9l5.2 5.2c.4.4 1.3.4 1.8 0l1.5-1.5c.6-.5.6-1.4-.1-1.9zm-15.7-5.7c-3.9 0-6.9-3-6.9-6.9s3-6.9 6.9-6.9 6.9 3 6.9 6.9c0 3.7-3.3 6.9-6.9 6.9zm0-12.1c-.5 0-.9.1-1.3.2v10.2c.4.1.9.2 1.3.2s.9-.1 1.3-.2V29.7c-.4-.1-.8-.2-1.3-.2zm-5 3.9a5.23 5.23 0 0 0-.3 1.8c0 1.9 1.1 3.6 2.6 4.5v-6.3h-2.3zm7.6 6.3c1.6-.9 2.6-2.6 2.6-4.5h-2.6v4.5z"/><g fill="#fff"><path d="M30.9 49.3c-3.3-1.6-6.1-4-8-7-1 .6-2 1.4-2.9 2.2 2.9 2.7 6.7 4.5 10.9 4.8zM14.7 32.7c.2 4.1 1.8 7.8 4.2 10.7 1-.9 2-1.7 3.2-2.4-1.3-2.5-2.1-5.3-2.2-8.3h-5.2zm19.6-4.8c-3.9 0-6.9 3-6.9 6.9s3 6.9 6.9 6.9c3.7 0 6.9-3.2 6.9-6.9 0-3.9-3-6.9-6.9-6.9zm-2.6 11.8c-1.6-.9-2.6-2.6-2.6-4.5 0-.6.1-1.2.3-1.8h2.3v6.3zm3.9.2c-.4.1-.8.1-1.3.1s-.9 0-1.3-.1V29.7c.4-.1.9-.2 1.3-.2s.9.1 1.3.2v10.2zm1.3-.2v-4.5h2.6c.1 1.9-1 3.6-2.6 4.5zm-22.2-8.4H20c.1-3 .9-5.8 2.2-8.3-1.1-.7-2.2-1.5-3.2-2.4-2.5 2.9-4.1 6.6-4.3 10.7z"/><path d="M58 0H6a6.02 6.02 0 0 0-6 6v52a6.02 6.02 0 0 0 6 6h52a6.02 6.02 0 0 0 6-6V6a6.02 6.02 0 0 0-6-6zm-7.8 49l-1.5 1.5c-.4.4-1.3.4-1.8 0l-5.2-5.2c-.2-.2-.4-.4-.4-.9v-.9c-1.9 1.4-4.3 2.3-6.9 2.3-6.2 0-11.2-5-11.2-11.2s5-11.2 11.2-11.2 11.2 5 11 11.2c0 2.5-1 5.1-2.3 6.9h.9c.4 0 .7 0 .9.2l5.2 5.4c.6.7.6 1.6.1 1.9zm-3-4.9l-1.5-1.6c2.1-2.8 3.4-6.1 3.5-9.8h-3l-.3-1.4h3.4c-.2-4.1-1.8-7.8-4.2-10.7-1 .9-2 1.7-3.2 2.4.6 1.2 1.1 2.4 1.5 3.7-.7-.8-1.5-1.5-2.4-2.1-.1-.3-.3-.6-.4-.9-.2.1-.5.2-.7.3-.6-.3-1.3-.6-2-.8.7-.2 1.3-.5 1.9-.8-1.7-2.6-4.1-4.8-7-6.2v6.7l-1.4.3v-7c-2.8 1.4-5.3 3.6-7 6.2 1.5.8 3.2 1.3 4.9 1.6-.7.3-1.3.7-1.9 1.1-1.3-.3-2.5-.8-3.7-1.4-1.3 2.3-2 4.9-2.1 7.6H23c-.1.4-.2.9-.3 1.3h-1.2c.2 2.8.9 5.3 2.1 7.6 0 0 .1 0 .1-.1.2.5.5.9.7 1.3h-.1c1.7 2.6 4.1 4.8 7 6.2v-1.2l1.4.3v1c.5-.3 1.1-.6 1.6-.9h.2c.9 0 1.7-.1 2.6-.3a19.05 19.05 0 0 1-4.1 2.6c3.4-.2 6.5-1.3 9-3.2l1.6 1.6c-3.2 2.4-7.2 3.8-11.6 3.8-10.8 0-19.4-8.6-19.5-19.4.1-10.8 8.7-19.4 19.5-19.4S51.4 21.2 51.5 32a19 19 0 0 1-4.3 12.1zm-6.1-22.4c1-.6 2-1.4 2.9-2.2-2.9-2.8-6.7-4.5-10.9-4.8 3.3 1.6 6.1 4 8 7zm-18.1 0c2-3 4.7-5.5 8-7-4.3.3-8.1 2-10.9 4.8.9.8 1.8 1.6 2.9 2.2z"/></g></svg>